<?xml version="1.0" encoding="UTF-8"?>
<svg xmlns="http://www.w3.org/2000/svg" version="1.1" viewBox="0 0 1800 900">
  <!-- Generator: Adobe Illustrator 29.5.1, SVG Export Plug-In . SVG Version: 2.1.0 Build 141)  -->
  <defs>
    <style>
      .st0 {
        fill: #858e8d;
      }

      .st1 {
        fill: #747678;
      }

      .st2 {
        fill: #e2c675;
      }

      .st3 {
        fill: #fff;
      }

      .st4 {
        fill: #b4b9bb;
      }

      .st5 {
        fill: #bd8648;
      }

      .st6 {
        fill: none;
        stroke: #fff;
        stroke-width: .5px;
      }
    </style>
  </defs>
  <g id="Background">
    <rect class="st4" width="1799.5" height="900"/>
    <rect class="st4" x="0" width="899.75" height="450"/>
  </g>
  <g id="Graticule">
    <g>
      <g>
        <path class="st6" d="M1799.5,900V0"/>
        <path class="st6" d="M0,900V0"/>
        <path class="st6" d="M24.99,575v-250"/>
        <path class="st6" d="M49.99,575v-250"/>
        <path class="st6" d="M74.98,900V0"/>
        <path class="st6" d="M99.97,575v-250"/>
        <path class="st6" d="M124.97,575v-250"/>
        <path class="st6" d="M149.96,900V0"/>
        <path class="st6" d="M174.95,575v-250"/>
        <path class="st6" d="M199.94,575v-250"/>
        <path class="st6" d="M224.94,900V0"/>
        <path class="st6" d="M249.93,575v-250"/>
        <path class="st6" d="M274.92,575v-250"/>
        <path class="st6" d="M299.92,900V0"/>
        <path class="st6" d="M324.91,575v-250"/>
        <path class="st6" d="M349.9,575v-250"/>
        <path class="st6" d="M374.9,900V0"/>
        <path class="st6" d="M399.89,575v-250"/>
        <path class="st6" d="M424.88,575v-250"/>
        <path class="st6" d="M449.88,900V0"/>
        <path class="st6" d="M474.87,575v-250"/>
        <path class="st6" d="M499.86,575v-250"/>
        <path class="st6" d="M524.85,900V0"/>
        <path class="st6" d="M549.85,575v-250"/>
        <path class="st6" d="M574.84,575v-250"/>
        <path class="st6" d="M599.83,900V0"/>
        <path class="st6" d="M624.83,575v-250"/>
        <path class="st6" d="M649.82,575v-250"/>
        <path class="st6" d="M674.81,900V0"/>
        <path class="st6" d="M699.8,575v-250"/>
        <path class="st6" d="M724.8,575v-250"/>
        <path class="st6" d="M749.79,900V0"/>
        <path class="st6" d="M774.78,575v-250"/>
        <path class="st6" d="M799.78,575v-250"/>
        <path class="st6" d="M824.77,900V0"/>
        <path class="st6" d="M849.76,575v-250"/>
        <path class="st6" d="M874.76,575v-250"/>
        <path class="st6" d="M899.75,900V0"/>
        <path class="st6" d="M924.74,575v-250"/>
        <path class="st6" d="M949.74,575v-250"/>
        <path class="st6" d="M974.73,900V0"/>
        <path class="st6" d="M999.72,575v-250"/>
        <path class="st6" d="M1024.71,575v-250"/>
        <path class="st6" d="M1049.71,900V0"/>
        <path class="st6" d="M1074.7,575v-250"/>
        <path class="st6" d="M1099.69,575v-250"/>
        <path class="st6" d="M1124.69,900V0"/>
        <path class="st6" d="M1149.68,575v-250"/>
        <path class="st6" d="M1174.67,575v-250"/>
        <path class="st6" d="M1199.67,900V0"/>
        <path class="st6" d="M1224.66,575v-250"/>
        <path class="st6" d="M1249.65,575v-250"/>
        <path class="st6" d="M1274.65,900V0"/>
        <path class="st6" d="M1299.64,575v-250"/>
        <path class="st6" d="M1324.63,575v-250"/>
        <path class="st6" d="M1349.62,900V0"/>
        <path class="st6" d="M1374.62,575v-250"/>
        <path class="st6" d="M1399.61,575v-250"/>
        <path class="st6" d="M1424.6,900V0"/>
        <path class="st6" d="M1449.6,575v-250"/>
        <path class="st6" d="M1474.59,575v-250"/>
        <path class="st6" d="M1499.58,900V0"/>
        <path class="st6" d="M1524.58,575v-250"/>
        <path class="st6" d="M1549.57,575v-250"/>
        <path class="st6" d="M1574.56,900V0"/>
        <path class="st6" d="M1599.55,575v-250"/>
        <path class="st6" d="M1624.55,575v-250"/>
        <path class="st6" d="M1649.54,900V0"/>
        <path class="st6" d="M1674.53,575v-250"/>
        <path class="st6" d="M1699.53,575v-250"/>
        <path class="st6" d="M1724.52,900V0"/>
        <path class="st6" d="M1749.51,575v-250"/>
        <path class="st6" d="M1774.51,575v-250"/>
        <path class="st6" d="M0,875h1799.5"/>
        <path class="st6" d="M0,850h1799.5"/>
        <path class="st6" d="M0,825h1799.5"/>
        <path class="st6" d="M0,800h1799.5"/>
        <path class="st6" d="M0,775h1799.5"/>
        <path class="st6" d="M0,750h1799.5"/>
        <path class="st6" d="M0,725h1799.5"/>
        <path class="st6" d="M0,700h1799.5"/>
        <path class="st6" d="M0,675h1799.5"/>
        <path class="st6" d="M0,650h1799.5"/>
        <path class="st6" d="M0,625h1799.5"/>
        <path class="st6" d="M0,600h1799.5"/>
        <path class="st6" d="M0,575h1799.5"/>
        <path class="st6" d="M0,550h1799.5"/>
        <path class="st6" d="M0,525h1799.5"/>
        <path class="st6" d="M0,500h1799.5"/>
        <path class="st6" d="M0,475h1799.5"/>
        <path class="st6" d="M0,450h1799.5"/>
        <path class="st6" d="M0,425h1799.5"/>
        <path class="st6" d="M0,400h1799.5"/>
        <path class="st6" d="M0,375h1799.5"/>
        <path class="st6" d="M0,350h1799.5"/>
        <path class="st6" d="M0,325h1799.5"/>
        <path class="st6" d="M0,300h1799.5"/>
        <path class="st6" d="M0,275h1799.5"/>
        <path class="st6" d="M0,250h1799.5"/>
        <path class="st6" d="M0,225h1799.5"/>
        <path class="st6" d="M0,200h1799.5"/>
        <path class="st6" d="M0,175h1799.5"/>
        <path class="st6" d="M0,150h1799.5"/>
        <path class="st6" d="M0,125h1799.5"/>
        <path class="st6" d="M0,100h1799.5"/>
        <path class="st6" d="M0,75h1799.5"/>
        <path class="st6" d="M0,50h1799.5"/>
        <path class="st6" d="M0,25h1799.5"/>
      </g>
      <g>
        <path class="st6" d="M0,0h1799.5"/>
        <path class="st6" d="M0,900h1799.5"/>
        <path class="st6" d="M1799.5,900V0"/>
        <path class="st6" d="M0,900V0"/>
      </g>
    </g>
  </g>
  <g id="Simple_Countries">
    <polygon class="st0" points="566.26 721.89 556.73 714.09 556.56 724.38 564.89 724.63 566.59 725.43 574.72 723.88 566.26 721.89"/>
    <polygon class="st1" points="531.94 351.24 537.91 357.21 526.97 355.72 528.96 360.2 539.9 359.2 541.02 360.16 540.77 350.66 531.94 351.24"/>
    <polygon class="st2" points="547.36 359.2 559.3 357.71 546.86 350.25 540.77 350.66 541.02 360.16 543.38 362.19 547.36 359.2"/>
    <polygon class="st2" points="512.54 361.19 519.01 359.7 512.54 356.72 507.07 358.21 512.54 361.19"/>
    <polygon class="st2" points="591.63 396.02 591.13 399.5 595.61 399.5 594.61 395.52 591.63 396.02"/>
    <g>
      <polygon class="st2" points="511.39 330.84 510.39 323.38 508.4 327.36 511.39 330.84"/>
      <polygon class="st2" points="514.27 321 514.1 315.77 505.1 316.58 512.53 316.96 514.27 321"/>
      <polygon class="st2" points="535.1 342.68 530.93 344.47 534.46 345.37 535.1 342.68"/>
      <polygon class="st2" points="519.78 323.69 516.19 322.09 518.82 324.46 518.75 327.16 519.78 323.69"/>
      <polygon class="st2" points="522.09 329.27 524.07 329.27 521.9 326.65 522.09 329.27"/>
      <polygon class="st2" points="526.06 335.88 523.5 331.2 523.43 334.15 526.06 335.88"/>
      <polygon class="st2" points="528.82 338.83 530.93 337.55 530.04 335.82 528.82 338.83"/>
    </g>
    <g>
      <polygon class="st5" points="490.16 332.34 476.73 338.81 475.74 341.79 487.67 337.31 490.16 339.3 506.08 341.79 508.07 346.27 513.54 346.77 510.55 351.74 529.46 349.25 490.16 332.34"/>
      <polygon class="st5" points="487.37 341.79 484.75 341.04 485.13 343.28 487.37 341.79"/>
    </g>
    <polygon class="st0" points="807.24 133.58 831.86 125 819.92 115.67 808.36 120.15 804.63 117.91 794.56 123.51 787.47 116.79 776.65 121.64 789.71 122.39 779.64 125.75 790.08 127.61 786.72 131.34 807.24 133.58"/>
    <g>
      <polygon class="st3" points="1698.78 852.24 1698.78 845.52 1737.58 842.54 1713.71 831.34 1712.21 825.37 1755.48 807.46 1626.41 785.07 1548.08 781.34 1545.1 788.06 1532.41 780.6 1490.63 786.57 1460.79 777.61 1448.85 786.57 1412.29 777.61 1341.42 781.34 1260.1 799.25 1256.37 807.46 1239.95 801.49 1248.91 790.3 1164.6 776.86 1094.47 800 1069.85 790.3 1063.14 799.25 960.18 801.49 898.26 808.96 855.73 802.98 722.19 841.79 754.27 847.76 605.8 861.94 502.1 847.76 537.16 835.08 473.75 833.58 517.77 828.36 569.99 830.6 603.57 817.91 584.17 791.79 572.98 790.3 625.95 765.67 584.91 769.4 552.83 785.82 563.28 794.78 539.4 794.03 544.63 800.75 522.24 805.22 543.13 815.67 496.13 817.91 394.67 808.21 394.67 823.13 286.49 815.67 110.42 837.31 179.8 854.48 114.89 855.22 134.29 869.4 198.45 877.61 0 872.11 0 900 1799.5 900 1799.5 872.11 1736.83 864.92 1698.78 852.24"/>
      <polygon class="st3" points="652.06 840.3 625.2 852.24 681.15 850 675.19 840.3 652.06 840.3"/>
      <polygon class="st3" points="566.26 841.04 540.15 845.52 549.85 848.51 566.26 841.04"/>
      <polygon class="st3" points="602.07 847.76 573.72 852.98 600.58 855.97 602.07 847.76"/>
    </g>
    <g>
      <polygon class="st0" points="1771.15 655.22 1761.45 653.73 1732.35 681.34 1747.28 685.82 1771.15 655.22"/>
      <polygon class="st0" points="1779.36 659.7 1793.53 638.06 1783.83 638.8 1763.69 621.64 1772.64 638.8 1768.91 647.01 1776.37 650.75 1774.13 657.46 1779.36 659.7"/>
    </g>
    <line class="st5" x1="1598.81" y1="638.06" x2="1629.4" y2="645.52"/>
    <polygon class="st5" points="1630.89 668.66 1639.1 660.45 1639.84 654.48 1622.68 652.98 1630.89 668.66"/>
    <polyline class="st5" points="1629.4 645.52 1648.05 637.31 1668.94 592.54 1664.46 576.12 1630.89 544.78 1624.92 521.64 1617.46 521.64 1610.75 501.49 1604.03 540.3 1577.17 526.12 1583.89 510.45 1551.81 505.22 1559.27 508.95 1551.81 511.94 1546.59 521.64 1549.57 528.36 1532.41 518.66 1517.49 537.31 1515.25 531.34 1506.3 547.01 1469.74 560.45 1466.76 571.64 1469.74 579.1 1466.01 580.6 1479.44 614.93 1474.22 620.15 1485.41 626.87 1500.33 619.4 1518.98 619.4 1519.73 614.93 1555.54 606.72 1569.71 612.69 1576.43 625.37 1587.62 614.93 1583.89 629.85 1595.83 629.1 1598.81 638.06"/>
    <polygon class="st0" points="1145.95 509.7 1135.51 528.36 1119.84 531.34 1118.35 540.3 1123.57 548.51 1116.11 561.94 1124.32 579.85 1137 573.88 1150.43 532.09 1146.7 527.61 1153.41 527.61 1145.95 509.7"/>
    <polygon class="st1" points="1083.52 300.71 1087.2 299.81 1089.76 297.41 1084.58 292.39 1094.71 290.05 1095.94 289.25 1096.15 288.18 1094.98 288.45 1095.14 287.54 1093.73 283.21 1083.47 288.81 1078.99 286.57 1077.69 286.57 1077.5 288.25 1077.5 291.98 1074.97 301.31 1074.8 303.28 1080.1 304.13 1083.52 300.71"/>
    <polygon class="st5" points="1158.26 330.72 1159.38 334.7 1175.17 337.56 1176.04 336.44 1177.04 330.47 1179.53 329.73 1178.65 325.62 1181.92 325.46 1181.55 322.64 1179.71 320.2 1172.81 328.36 1157.89 328.36 1157.86 328.16 1157.76 328.48 1158.26 330.72"/>
    <polygon class="st0" points="1158.26 330.72 1157.76 328.48 1157.86 328.16 1156.4 318.66 1152.93 323.27 1153.91 326.99 1158.26 330.72"/>
    <polygon class="st2" points="1136.81 305.04 1132.61 304.66 1123.29 304.01 1102.68 290.3 1095.94 289.25 1094.71 290.05 1084.58 292.39 1089.76 297.41 1087.2 299.81 1083.52 300.71 1080.1 304.13 1074.8 303.28 1074.33 308.95 1095.22 332.09 1094.47 344.78 1103.43 351.49 1112.38 365.67 1113.25 368.62 1115.74 366.92 1116.11 361.94 1118.85 363.81 1121.58 362.69 1131.15 366.54 1131.53 372.01 1143.47 358.58 1159.63 355.1 1174.67 350 1177.91 339.92 1176.04 336.44 1175.17 337.56 1159.38 334.7 1158.26 330.72 1153.91 326.99 1152.93 323.27 1151.92 324.63 1150.43 316.42 1141.48 311.19 1139.97 307.27 1137.84 307.18 1136.81 305.04"/>
    <polygon class="st0" points="1159.63 355.1 1143.47 358.58 1131.53 372.01 1131.15 366.54 1121.58 362.69 1118.85 363.81 1116.11 361.94 1115.74 366.92 1113.25 368.62 1118.35 385.82 1160.87 373.13 1159.38 367.91 1164.88 366.47 1159.51 357.09 1159.63 355.1"/>
    <polygon class="st1" points="1135.69 300 1132.61 304.66 1136.81 305.04 1137.84 307.18 1139.97 307.27 1137.75 301.49 1141.27 300.66 1140.35 299.72 1135.69 300"/>
    <polygon class="st2" points="1253.57 328.83 1255.73 325.67 1247.07 315.92 1252.24 309.83 1253.65 311.42 1259.15 310.17 1272.98 294.67 1272.73 290.67 1276.56 288.58 1269.81 284.17 1269.05 276.08 1278.65 277.5 1289.73 272.5 1280.73 270.92 1278.23 266.25 1272.48 264.83 1260.65 266.75 1255.9 269.33 1257.99 274 1254.57 279.92 1249.15 279.83 1251.32 283.33 1247.15 284.92 1246.65 290.58 1243.82 292 1241.91 291.17 1233.24 293.92 1230.82 299.67 1218.88 303 1204 300.67 1209.29 307.1 1213.58 308.67 1213.5 313.67 1216.25 314.17 1215.58 316.83 1208.91 318.83 1207.78 324.93 1210.11 325.37 1231 322.39 1240.81 331.16 1243.4 328.42 1253.57 328.83"/>
    <polygon class="st5" points="1139.85 295 1138.18 295 1139.02 291 1136.52 287.67 1135.43 287.75 1130.19 285.17 1130.27 283.42 1126.69 280.17 1126.85 277.75 1130.44 274.5 1129.69 272.58 1131.44 271 1126.52 269.58 1123.52 263.83 1120.94 265.08 1121.02 263.75 1113.61 263.08 1111.52 264.67 1106.49 267.65 1105.69 277.3 1093.73 283.21 1095.14 287.54 1094.98 288.45 1096.15 288.18 1095.94 289.25 1102.68 290.3 1123.29 304.01 1132.61 304.66 1135.69 300 1140.35 299.72 1141.27 300.66 1142.92 300.27 1139.85 297.25 1139.85 295"/>
    <polygon class="st0" points="1215.58 316.83 1216.25 314.17 1213.5 313.67 1213.58 308.67 1209.29 307.1 1204 300.67 1208.75 295.75 1208.25 293.08 1203.92 292.5 1202.25 279.25 1206.01 271.45 1205.42 266.75 1201.5 266.75 1194.33 261.67 1186.42 260 1185.59 258.58 1173.84 261.25 1173.17 262.67 1169.05 263.11 1168.87 265.88 1159.84 267.07 1152 264.93 1150.1 262.08 1145.35 261.61 1144.23 257.92 1142.77 258 1139.77 255.75 1141.35 252.83 1139.6 251.42 1132.35 255.58 1130.6 255.75 1126.85 255 1123.52 251.5 1123.19 251.26 1120.02 252.92 1122.1 258.42 1120.77 260.5 1122.35 261.08 1123.52 263.83 1126.52 269.58 1131.44 271 1129.69 272.58 1130.44 274.5 1126.85 277.75 1126.69 280.17 1130.27 283.42 1130.19 285.17 1135.43 287.75 1136.52 287.67 1139.02 291 1138.18 295 1139.85 295 1139.85 297.25 1142.92 300.27 1150.43 298.51 1156.4 308.95 1174.3 318.66 1184 313.43 1186.24 320.89 1207.78 324.93 1208.91 318.83 1215.58 316.83"/>
    <polygon class="st2" points="915.32 195.8 915.88 197.29 920.55 198.51 920.73 200.19 924.18 199.16 924.28 200.75 928.75 202.42 929.13 201.68 928.29 200.37 929.5 199.16 930.43 199.35 931.68 198.1 930.6 196.24 928.24 196.24 928.94 194.22 923.62 192.44 918.5 194.29 915.42 192.71 912.06 193.74 913.55 196.27 915.32 195.8"/>
    <polygon class="st5" points="864.78 259.23 863.01 257.65 865.06 254.57 862.17 251.31 865.43 251.31 865.43 244.59 868.51 241.7 866.64 239.83 859.18 240.58 859.09 239.18 855.97 240.06 857.22 244.78 851.26 257.46 857.22 257.46 854.99 263.43 862.47 263.43 862.47 261.54 864.78 259.23"/>
    <polygon class="st2" points="907.63 237.92 908.52 237.41 907.96 236.67 906.93 236.67 906.93 237.22 907.63 237.92"/>
    <polygon class="st0" points="981.14 196.39 982.81 199.44 984.8 197.61 994.25 202.49 997 202.18 999.13 203.71 1005.69 202.18 1013.93 204.62 1013.31 201.88 1021.17 197.84 1017.59 192.42 1015.91 188.3 1019.72 186.32 1017.28 180.06 1013.62 178.08 998.28 178.08 995.25 179.85 990.02 173.88 970.8 179.58 974.42 194.71 981.14 196.39"/>
    <polygon class="st5" points="935.1 186.57 933.32 186.94 935.19 187.78 933.97 190.11 929.5 190.86 931.09 192.82 929.69 194.68 930.6 196.24 931.68 198.1 930.43 199.35 932.39 200.84 931.55 202.52 940.13 204.76 937.52 212.13 942.18 211.67 942.18 211.01 947.89 212.1 949.49 212.06 950.98 213.58 952.1 211.99 953.84 211.94 955.95 212.81 958.07 211.83 964.82 211.64 963.44 209.05 969.08 206.61 960.39 198.83 974.42 194.71 970.8 179.58 969.88 179.85 965.41 176.12 954.21 179.1 951.54 175.67 942.13 175.07 943.4 180.78 934.68 182.91 936.03 183.49 935.1 186.57"/>
    <polygon class="st1" points="923.62 192.44 928.94 194.22 928.24 196.24 930.6 196.24 929.69 194.68 931.09 192.82 929.5 190.86 933.97 190.11 935.19 187.78 933.32 186.94 935.1 186.57 936.03 183.49 934.68 182.91 925.86 185.07 918.4 191.79 915.42 192.71 918.5 194.29 923.62 192.44"/>
    <polygon class="st0" points="1040.46 215.3 1034.05 208.7 1033.14 208.9 1024.14 211.49 1014.38 210.27 1009.5 212.1 1005.84 218.51 1000.66 219.27 1003.82 221.17 1003.92 222.48 1007.28 223.97 1007.09 226.12 1009.98 227.24 1011.57 226.12 1013.62 226.96 1012.22 227.52 1012.96 228.82 1014.92 229.57 1014.18 230.78 1027.14 232.09 1035.44 228.73 1041.98 230.89 1046.98 224.42 1040.77 222.32 1040.46 215.3"/>
    <polygon class="st2" points="1027.14 232.09 1014.18 230.78 1014.92 229.57 1012.96 228.82 1011.19 230.5 1014.74 233.96 1011.75 235.45 1011.85 238.43 1013.81 239.64 1014.64 241.32 1014.53 243.07 1021.55 242.16 1030.25 243.22 1030.09 241.39 1031.16 240.93 1039.7 239.99 1037.03 237.31 1041.98 230.89 1035.44 228.73 1027.14 232.09"/>
    <polygon class="st5" points="1013.62 178.08 1017.28 180.06 1027.96 179 1032.99 171.37 1023.53 167.71 1005.83 168.91 1004.34 174.13 1013.01 174.42 1013.62 178.08"/>
    <polygon class="st5" points="976.1 222.93 978.39 220.49 977.93 218.97 982.36 217.44 980.83 215.15 972.44 217.9 967.71 217.13 967.48 220.83 967.48 220.83 967.86 220.68 968.53 223.35 972.44 221.71 976.1 222.93"/>
    <polygon class="st0" points="988.91 235.75 986.32 232.85 978.54 225.98 978.85 223.39 981.44 225.07 982.51 223.7 992.57 224 993.64 225.53 995.32 225.22 996.23 224 993.95 220.64 987.85 220.34 982.36 217.44 977.93 218.97 978.39 220.49 976.1 222.93 972.44 221.71 968.53 223.35 969.21 226.09 971.33 223.29 974.13 224.54 974.13 227.73 977.32 228.12 975.48 229.18 979.92 232.46 982.72 232.26 992.29 238.21 992.17 237.08 988.91 235.75"/>
    <polygon class="st2" points="1002.18 243.22 1002.94 240.17 1000.05 236.97 998.67 237.73 998.37 236.66 996.54 238.8 996.4 240.76 997.48 241.43 997.19 247.8 1000.73 252.07 1004.93 245.66 1002.18 243.22"/>
    <polygon class="st1" points="998.37 236.66 998.67 237.73 1000.05 236.97 1001.73 235.44 995.62 232.09 995.01 233.76 993.64 233.15 991.96 234.98 992.17 237.08 992.29 238.21 996.4 240.76 996.54 238.8 998.37 236.66"/>
    <polygon class="st2" points="1004.32 105.16 1000.5 104.55 1000.05 107.6 980.83 112.63 982.05 114.16 972.44 120.41 970.15 129.57 959.93 132.92 960.7 141.77 963.75 143.3 957.19 155.81 954.88 155.81 963.17 172.39 970.63 172.39 972.12 168.66 984.06 167.91 984.06 155.97 995.25 149.25 985.55 144.03 987.79 136.57 1007.18 129.1 1005.69 123.88 1018.72 119.91 1018.04 110.35 1004.32 105.16"/>
    <polygon class="st5" points="1089.85 214.6 1092.32 210.88 1099.18 209.81 1100.4 201.88 1087.13 197.46 1078.29 198.22 1075.69 193.79 1071.12 193.18 1069.14 187.69 1058.92 189.52 1052.51 190.74 1052.51 193.71 1021.86 190.29 1017.59 192.42 1021.17 197.84 1013.31 201.88 1013.93 204.62 1010.26 207.68 1014.38 210.27 1024.14 211.49 1033.14 208.9 1034.05 208.7 1038.63 207.68 1045.5 209.96 1050.23 217.9 1044.58 216.83 1044.58 220.19 1040.77 222.32 1046.98 224.42 1053.44 216.04 1061.27 216.79 1058.66 219.03 1067.61 219.4 1062.02 223.13 1067.61 223.88 1067.61 228.36 1082.91 222.76 1072.09 220.15 1089.85 214.6"/>
    <polygon class="st1" points="1415.1 378.17 1425.27 378.83 1427.27 377.08 1427.4 370.62 1423.44 368.46 1423.52 362.92 1419.61 358.5 1416.61 357.83 1412.94 360.67 1410.11 358.92 1404.44 362.42 1405.94 352.08 1402.44 352.5 1402.53 349.25 1400.03 348.25 1390.03 350.92 1387.45 358.33 1394.28 368.08 1390.61 373.92 1395.53 380.58 1397.53 390.67 1392.28 400.42 1390.63 401.52 1389.91 407.46 1399.45 417 1401.11 416.5 1406.03 421 1409.36 420.67 1410.36 418.64 1401.85 412.69 1396.63 401.49 1401.1 383.58 1405.58 387.31 1414.82 393.34 1411.44 382.17 1415.1 378.17"/>
    <polygon class="st2" points="1040.77 222.32 1044.58 220.19 1044.58 216.83 1050.23 217.9 1045.5 209.96 1038.63 207.68 1034.05 208.7 1040.46 215.3 1040.77 222.32"/>
    <polygon class="st2" points="1432.52 338.33 1433.68 336 1426.19 333.08 1421.44 336.58 1410.49 337.47 1416.69 346 1420.19 345.08 1424.52 349.92 1419.44 353.75 1432.44 365 1436.94 369.58 1435.6 370.67 1437.68 373.25 1437.64 376.88 1437.52 387.5 1428.69 391.92 1430.35 395.42 1425.19 395.25 1421.65 397.79 1422.74 398.51 1422.74 408.21 1433.93 398.51 1446.61 389.55 1444.38 373.13 1430.2 358.96 1429.45 350.75 1439.26 342.57 1433.1 340.17 1432.52 338.33"/>
    <polygon class="st2" points="995.78 228.27 996.39 225.83 995.32 225.22 993.64 225.53 992.57 224 982.51 223.7 981.44 225.07 978.85 223.39 978.54 225.98 986.32 232.85 988.91 235.75 992.17 237.08 991.96 234.98 993.64 233.15 995.01 233.76 995.62 232.09 997.61 229.95 995.78 228.27"/>
    <polygon class="st1" points="1549.4 234.66 1545.99 238.92 1539.91 240.42 1541.26 243.08 1534.24 241 1521.41 250 1521.1 250.31 1524.95 252.24 1523.46 261.19 1533.9 261.94 1541.18 258.02 1536.14 252.98 1548.08 246.27 1548.08 240.3 1552.14 237.4 1551.46 236.72 1549.4 234.66"/>
    <polygon class="st0" points="1032.99 171.37 1040.6 168.78 1036.95 162.37 1032.35 162.37 1025.98 159.62 1020.05 160.27 1021.36 164.18 1008.68 158.96 1005.83 168.91 1023.53 167.71 1032.99 171.37"/>
    <polygon class="st0" points="1430.35 395.42 1428.69 391.92 1437.52 387.5 1437.64 376.88 1429.77 378.17 1430.44 379.75 1425.27 378.83 1415.1 378.17 1411.44 382.17 1414.82 393.34 1421.65 397.79 1425.19 395.25 1430.35 395.42"/>
    <polygon class="st1" points="1027.96 179 1017.28 180.06 1019.72 186.32 1015.91 188.3 1017.59 192.42 1021.86 190.29 1052.51 193.71 1052.51 190.74 1058.92 189.52 1056.48 183.88 1061.21 184.18 1063.65 182.81 1054.65 176.1 1052.82 171.06 1040.77 169.08 1040.6 168.78 1032.99 171.37 1027.96 179"/>
    <polygon class="st1" points="1006.34 239.37 1003.64 239.18 1002.94 240.17 1002.18 243.22 1004.93 245.66 1014.53 243.07 1014.64 241.32 1013.81 239.64 1011.85 238.43 1006.9 238.43 1006.34 239.37"/>
    <polygon class="st1" points="1032.35 162.37 1036.95 162.37 1037.57 155.65 1040.64 151.42 1018.37 155.22 1020.05 160.27 1025.98 159.62 1032.35 162.37"/>
    <polygon class="st0" points="982.1 213.53 983.31 212.59 982 211.1 985.36 211.38 985.17 209.61 983.96 207.93 984.52 206.81 975.01 204.94 973.15 207 969.08 206.61 963.44 209.05 964.82 211.64 958.07 211.83 955.95 212.81 953.84 211.94 952.1 211.99 950.98 213.58 949.49 212.06 947.89 212.1 946.97 214.54 952.03 215.83 952.03 215.83 952.03 215.83 954.75 216.53 955.51 214.69 959.32 214.69 961.31 216.68 967.71 217.13 972.44 217.9 980.83 215.15 982.47 214.74 982.1 213.53"/>
    <g>
      <polygon class="st2" points="993.94 211.01 993.66 209.61 999.44 209.51 1003.27 206.72 1008.02 207.93 1010.26 207.68 1013.93 204.62 1005.69 202.18 999.13 203.71 997 202.18 994.25 202.49 990.49 203.54 989.09 205.41 985.64 205.6 984.52 206.81 983.96 207.93 985.17 209.61 988.44 211.38 993.94 211.01"/>
      <polygon class="st1" points="1010.26 207.68 1008.02 207.93 1003.27 206.72 999.44 209.51 993.66 209.61 993.94 211.01 988.44 211.38 985.17 209.61 985.36 211.38 982 211.1 983.31 212.59 982.1 213.53 982.47 214.74 980.83 215.15 982.36 217.44 987.85 220.34 993.95 220.64 1000.66 219.27 1005.84 218.51 1009.5 212.1 1014.38 210.27 1010.26 207.68"/>
    </g>
    <polygon class="st5" points="996.23 224 995.32 225.22 996.39 225.83 995.78 228.27 997.61 229.95 995.62 232.09 1001.73 235.44 1000.05 236.97 1002.94 240.17 1003.64 239.18 1006.34 239.37 1006.9 238.43 1011.85 238.43 1011.75 235.45 1014.74 233.96 1011.19 230.5 1012.96 228.82 1012.22 227.52 1013.62 226.96 1011.57 226.12 1009.98 227.24 1007.09 226.12 1007.28 223.97 1003.92 222.48 1003.82 221.17 1000.66 219.27 993.95 220.64 996.23 224"/>
    <polygon class="st1" points="930.43 199.35 929.5 199.16 928.29 200.37 929.13 201.68 928.75 202.42 931.55 202.52 932.39 200.84 930.43 199.35"/>
    <polygon class="st1" points="975.01 204.94 984.52 206.81 985.64 205.6 989.09 205.41 990.49 203.54 994.25 202.49 984.8 197.61 982.81 199.44 981.14 196.39 974.42 194.71 960.39 198.83 969.08 206.61 973.15 207 975.01 204.94"/>
    <polygon class="st1" points="947.89 212.1 942.18 211.01 942.18 211.67 937.52 212.13 936.96 212.69 934.54 212.13 930.24 217.26 929.69 219.5 931.46 219.5 931.37 218.1 933.88 217.72 934.91 219.96 939.29 220.71 941.81 217.54 945.01 220.74 946.57 217.16 950.3 218.84 950.2 216.88 952.16 217.26 952.03 215.83 946.97 214.54 947.89 212.1"/>
    <polygon class="st0" points="1050.38 131.09 1053.12 129.57 1047.73 125.04 1051.14 121.63 1044.89 115.53 1050.07 111.87 1042.45 108.82 1043.82 104.85 1044.89 101.19 1039.24 99.82 1029.02 102.56 1027.65 106.23 1012.55 106.23 1007.52 103.02 1004.32 105.16 1018.04 110.35 1018.72 119.91 1022.85 118.66 1025.84 123.88 1004.2 137.31 1007.18 147.01 1019.87 149.25 1042.25 145.52 1042.39 145.62 1057.85 135.37 1050.38 131.09"/>
    <polygon class="st0" points="842.3 389.05 839.07 376.87 829.12 366.92 817.45 368.13 817.19 370.4 812.21 376.12 814.15 381.01 822.36 382.08 823.68 380.25 831.4 381.48 831.4 383.29 827.85 383.75 825.02 382.67 815.71 384.96 816.88 387.91 831.11 386.57 842.3 389.05"/>
    <polygon class="st1" points="831.11 386.57 816.88 387.91 817.43 389.3 823.4 390.8 825.44 394.11 831.36 391.29 831.11 386.57"/>
    <polygon class="st5" points="827.85 383.75 831.4 383.29 831.4 381.48 823.68 380.25 822.36 382.08 814.15 381.01 815.71 384.96 825.02 382.67 827.85 383.75"/>
    <polygon class="st1" points="839.07 376.87 841.55 372.39 872.89 372.39 866.92 325.37 871.38 323.44 856.62 313.69 856.73 319.65 839.82 319.65 839.57 332.59 833.85 335.32 833.85 343.53 815.59 343.33 815.59 343.33 819.42 348.26 817.43 352.98 819.92 359.95 817.68 366.17 817.45 368.13 829.12 366.92 839.07 376.87"/>
    <polygon class="st2" points="872.89 372.39 841.55 372.39 839.07 376.87 842.3 389.05 854.24 387.81 859.46 398.76 862.45 397.26 863.69 399.25 868.66 396.02 869.16 399 872.89 398.01 872.89 390.05 879.86 382.09 882.84 384.08 896.77 374.13 900.99 375.12 917.66 372.64 920.63 368.08 920.63 354.17 918.4 354.48 871.38 323.44 866.92 325.37 872.89 372.39"/>
    <polygon class="st5" points="844.04 400.25 848.27 408.46 851.75 408.46 854.49 414.68 856.73 411.69 859.46 412.69 858.47 407.71 861.45 407.96 859.46 398.76 854.24 387.81 842.3 389.05 831.11 386.57 831.36 391.29 825.44 394.11 832.14 405.04 837.33 400.75 844.04 400.25"/>
    <polygon class="st0" points="917.66 372.64 900.99 375.12 902.24 380.35 912.43 390.3 914.92 388.31 918.65 391.29 920.14 383.58 928.6 380.35 934.57 384.83 939.29 382.83 947.5 386.32 950.24 383.08 962.17 384.33 967.89 381.59 967.64 376.87 977.34 364.93 979.33 349 974.85 334.82 970.63 336.82 959.19 331.84 929.1 352.98 920.63 354.17 920.63 368.08 917.66 372.64"/>
    <polygon class="st0" points="903.73 398.01 904.73 394.53 899.84 395.27 902.24 405.72 902.73 416.17 905.28 420.41 908.21 419.41 908.21 404.98 903.73 398.01"/>
    <polygon class="st1" points="902.24 405.72 899.84 395.27 885.57 395.27 886.32 403.22 887.32 408.21 884.08 416.67 886.42 425.23 888.56 426.12 905.28 420.41 902.73 416.17 902.24 405.72"/>
    <polygon class="st2" points="918.65 397.99 918.65 391.29 914.92 388.31 912.43 390.3 904.73 394.53 903.73 398.01 908.21 404.98 908.21 419.41 913.93 417.46 913.93 404.73 918.65 397.99"/>
    <polygon class="st0" points="887.32 408.21 886.32 403.22 883.09 400.75 877.62 401.99 872.89 398.01 869.16 399 868.66 396.02 863.69 399.25 862.45 397.26 859.46 398.76 861.45 407.96 858.47 407.71 859.46 412.69 856.73 411.69 857.47 417.41 862.7 420.9 861.99 427.64 863.19 428.36 879.61 422.39 886.42 425.23 884.08 416.67 887.32 408.21"/>
    <polygon class="st2" points="844.04 400.25 837.33 400.75 832.14 405.04 836.83 412.69 842.38 415.98 848.27 408.46 844.04 400.25"/>
    <polygon class="st1" points="857.47 417.41 856.73 411.69 854.49 414.68 851.75 408.46 848.27 408.46 842.38 415.98 861.99 427.64 862.7 420.9 857.47 417.41"/>
    <polygon class="st0" points="1053.71 582.33 1055.14 585.63 1059.62 586.58 1060.37 584.17 1059.54 579.83 1056.29 578.75 1053.71 582.33"/>
    <polygon class="st2" points="977.34 364.93 967.64 376.87 967.89 381.59 973.11 385.07 977.59 400 970.38 400.5 977.09 412.69 993.51 409.45 994.75 404.98 1002.21 404.23 1010.17 395.52 1013.9 394.78 1010.93 386.32 1008.92 386.32 1010.17 379.6 1019.62 368.66 1019.86 350.48 1017.38 351 979.58 332.59 974.85 334.82 979.33 349 977.34 364.93"/>
    <polygon class="st5" points="1039.8 557.83 1038.38 555.75 1038.29 552.5 1036.46 552.33 1035.8 550.5 1031.38 548.25 1026.05 539 1023.38 539.17 1018.13 542.25 1016.22 540 1007.05 541.5 1004.72 541.58 1004.72 557.75 1002.85 560 999.72 560 999.72 573.67 1001.23 574.76 1004.05 580.67 1003.22 581.92 1003.22 584.5 1008.22 584.25 1017.05 575.92 1023.03 579.17 1026.63 578.75 1029.05 573.75 1033.96 571.33 1034.55 568.75 1046.54 560.92 1045.13 559.08 1039.8 557.83"/>
    <polygon class="st2" points="1530.92 279.1 1546.59 273.88 1548.82 265.67 1541.18 258.02 1533.9 261.94 1530.92 279.1"/>
    <polygon class="st1" points="952.52 414.97 955.95 418.41 967.64 395.52 972.87 392.29 967.89 381.59 962.17 384.33 950.24 383.08 947.5 386.32 939.29 382.83 934.57 384.83 928.6 380.35 920.14 383.58 918.65 391.29 918.65 397.99 913.93 404.73 913.93 417.46 919.15 415.67 928.1 429.1 941.53 425.37 942.24 426.09 944.02 420.65 952.52 414.97"/>
    <polygon class="st0" points="1043.96 532 1033.71 539.83 1026.05 539 1031.38 548.25 1035.8 550.5 1036.46 552.33 1038.29 552.5 1038.38 555.75 1039.8 557.83 1045.13 559.08 1046.54 560.92 1056.21 562.08 1062.2 556.75 1062.12 553.33 1065.04 548.92 1063.21 544.17 1064.46 543.42 1064.62 533.58 1056.21 530.17 1051.79 530.08 1051.63 528.25 1044.38 529.83 1043.96 532"/>
    <g>
      <polygon class="st1" points="1179.53 329.73 1177.04 330.47 1176.04 336.44 1177.91 339.92 1174.67 350 1159.63 355.1 1159.51 357.09 1164.88 366.47 1176.54 363.43 1187.73 355.22 1189.22 348.51 1194.45 347.76 1198.17 338.06 1191.46 332.84 1182.51 329.85 1181.92 325.46 1178.65 325.62 1179.53 329.73"/>
      <polygon class="st1" points="1181.02 318.66 1179.71 320.2 1181.55 322.64 1181.02 318.66"/>
    </g>
    <g>
      <polygon class="st1" points="1126.85 255 1130.6 255.75 1128.77 252.25 1123.52 251.08 1123.19 251.26 1123.52 251.5 1126.85 255"/>
      <polygon class="st1" points="1141.35 252.83 1139.77 255.75 1142.77 258 1144.23 257.92 1143.69 256.14 1147.25 248.78 1152.24 248.54 1146.54 246.16 1142.27 241.13 1138.52 244 1132.52 240.58 1130.69 241.5 1133.1 243.42 1132.19 244.75 1126.35 242.67 1124.83 243.46 1127.77 245.75 1126.61 246.75 1129.52 249.42 1128.6 250.33 1132.44 252.25 1132.35 255.58 1139.6 251.42 1141.35 252.83"/>
    </g>
    <polygon class="st5" points="1056.67 439.41 1047.95 448.55 1047.95 456.86 1051.96 454.51 1058.9 454.51 1059.46 450.58 1069.62 448.67 1074.94 439.55 1069.92 428.31 1067.12 430.85 1053.69 432.34 1053.49 437.47 1056.67 439.41"/>
    <polygon class="st1" points="1002.21 404.23 994.75 404.98 993.51 409.45 977.09 412.69 972.12 419.65 975.19 429.02 980.08 434.33 980.58 441.29 983.06 432.34 993.51 431.84 993.26 428.36 997.61 424 1011.66 429.85 1013.9 425.62 1035.71 423.17 1021.11 406.72 1017.38 406.22 1017.63 399.75 1013.9 394.78 1010.17 395.52 1002.21 404.23"/>
    <polygon class="st2" points="1066.04 504.42 1066.04 510.67 1067.37 511.75 1064.95 513 1063.62 518.25 1065.43 520.2 1067.95 522.92 1072.79 522.41 1071.04 529.58 1076.2 535.33 1076.2 531.08 1079.12 530.66 1079.12 523.25 1075.2 517.5 1074.81 517.5 1075.87 522 1073.2 521.42 1069.7 511.17 1071.37 508.25 1071.04 502.08 1069.37 498.5 1071.14 498.64 1070.93 497.67 1064.87 497.08 1068.2 502.92 1066.04 504.42"/>
    <g>
      <polygon class="st1" points="1046.96 464 1049.21 463.5 1049.79 461.67 1052.54 462 1054.45 461.75 1051.96 454.51 1047.95 456.86 1043.93 461.57 1044.56 463.91 1046.38 463.25 1046.96 464"/>
      <polygon class="st5" points="1052.54 462 1049.79 461.67 1049.21 463.5 1046.96 464 1046.38 463.25 1044.56 463.91 1045.67 468.04 1046.25 465.9 1047.77 472.12 1049.21 471.75 1053.87 466.25 1053.87 464.83 1051.79 464.33 1052.54 462"/>
    </g>
    <polygon class="st1" points="1052.38 492.92 1051.79 490.84 1044.21 492.42 1041.63 496.17 1043.21 503.33 1041.46 507.67 1044.88 511.92 1048.71 510.75 1048.71 517.25 1045.05 516.92 1035.3 507.92 1034.21 509.83 1026.55 508.17 1026.38 506 1022.38 507.33 1021.72 505.58 1020.38 504.58 1019.8 514.92 1009.72 515 1009.77 531.88 1016.74 537.96 1023.36 536.56 1026.05 539 1033.71 539.83 1043.96 532 1044.38 529.83 1051.63 528.25 1050.79 524.92 1065.43 520.2 1063.62 518.25 1064.95 513 1067.37 511.75 1066.04 510.67 1066.04 504.42 1068.2 502.92 1064.87 497.08 1054.87 492.92 1054.08 491.77 1052.38 492.92"/>
    <polygon class="st5" points="900.99 375.12 896.77 374.13 882.84 384.08 879.86 382.09 872.89 390.05 872.89 398.01 877.62 401.99 883.09 400.75 886.32 403.22 885.57 395.27 899.84 395.27 904.73 394.53 912.43 390.3 902.24 380.35 900.99 375.12"/>
    <polygon class="st1" points="1351.49 211.69 1354.7 216.81 1352.92 223.72 1377.09 228.96 1381.85 236.22 1406.38 236.46 1424.83 242.65 1460.08 231.82 1456.38 228.48 1459.48 223.96 1467.81 226.69 1483.77 217.76 1499.72 216.69 1492.7 209.78 1479.48 211.21 1477.46 209.42 1483 200.45 1482.67 200.33 1471.18 198.58 1453.1 204.25 1429.52 197.92 1416.27 199 1411.27 197.17 1410.78 193.5 1394.03 189.42 1388.5 194.12 1391.28 197.5 1386.12 201.33 1372.7 199.83 1371.12 197.17 1361.29 195.33 1338.8 204.17 1338.27 205.26 1351.49 211.69"/>
    <polygon class="st5" points="1402.53 349.25 1402.44 352.5 1405.94 352.08 1404.44 362.42 1410.11 358.92 1412.94 360.67 1416.61 357.83 1419.61 358.5 1423.52 362.92 1423.44 368.46 1427.4 370.62 1427.27 377.08 1425.27 378.83 1430.44 379.75 1429.77 378.17 1437.64 376.88 1437.68 373.25 1435.6 370.67 1436.94 369.58 1432.44 365 1419.44 353.75 1424.52 349.92 1420.19 345.08 1416.69 346 1410.49 337.47 1408.03 337.67 1408.86 343.75 1406.03 344.08 1405.55 342.43 1400.03 348.25 1402.53 349.25"/>
    <g>
      <polygon class="st0" points="1064.63 409.7 1070.1 407.21 1073.08 393.49 1081.98 380.16 1084.03 365.42 1092.66 359.91 1086.27 356.72 1083.28 338.81 1078.06 333.58 1077.97 333.41 1068.86 341.54 1065.13 339.8 1024.59 339.8 1024.59 349.5 1019.86 350.48 1019.62 368.66 1010.17 379.6 1008.92 386.32 1010.93 386.32 1013.9 394.78 1017.63 399.75 1017.38 406.22 1021.11 406.72 1035.71 423.17 1036.03 423.13 1035.71 423.17 1036.78 424.38 1042.75 428.86 1047.47 426.37 1053.69 432.34 1067.12 430.85 1069.92 428.31 1072.34 426.12 1078.56 426.37 1073.08 416.17 1064.63 409.7"/>
      <polygon class="st2" points="1136.75 409.7 1118.1 403.98 1112.63 397.26 1114.16 395.37 1108.4 395.27 1108.9 390.8 1111.13 387.31 1100.94 378.11 1090.74 376.37 1081.98 380.16 1073.08 393.49 1070.1 407.21 1064.63 409.7 1073.08 416.17 1078.56 426.37 1090.25 431.59 1096.71 432.34 1102.68 428.11 1109.39 429.85 1124.57 425.12 1137.5 411.94 1136.75 409.7"/>
    </g>
    <polygon class="st2" points="1349.54 316.33 1360.21 315.42 1357.96 310.58 1349.24 307.56 1344.13 313.58 1343.38 314.25 1349.54 316.33"/>
    <polygon class="st1" points="1108.9 390.8 1108.4 395.27 1114.16 395.37 1114.9 394.45 1111.63 393.28 1116.86 388.81 1113.94 386.43 1111.13 387.31 1108.9 390.8"/>
    <polygon class="st5" points="1081.98 380.16 1090.74 376.37 1100.94 378.11 1111.13 387.31 1113.94 386.43 1096.71 372.39 1093.73 360.45 1092.66 359.91 1084.03 365.42 1081.98 380.16"/>
    <polygon class="st5" points="1257.48 266.33 1256.48 258.75 1252.99 257.92 1246.32 264.33 1244.15 263.42 1239.24 264.92 1232.51 263.35 1228.16 262.33 1223.66 264.33 1221.99 268.75 1215.25 270.67 1215.25 272.58 1212 273.58 1206.08 272 1206.01 271.45 1202.25 279.25 1203.92 292.5 1208.25 293.08 1208.75 295.75 1204 300.67 1218.88 303 1230.82 299.67 1233.24 293.92 1241.91 291.17 1243.82 292 1246.65 290.58 1247.15 284.92 1251.32 283.33 1249.15 279.83 1254.57 279.92 1257.99 274 1255.9 269.33 1260.65 266.75 1272.48 264.83 1271.65 264.08 1272.81 263.76 1266.23 262.67 1257.48 266.33"/>
    <polygon class="st1" points="1256.98 251.92 1246.32 252.42 1247.32 249.33 1253.23 249 1251.4 247.83 1253.65 246.42 1251.57 244.83 1242.66 249.08 1242.82 251.75 1237.59 252.08 1236.49 253.92 1240.57 255.5 1241.49 259.5 1238.74 262.92 1239.24 264.92 1244.15 263.42 1246.32 264.33 1252.99 257.92 1256.48 258.75 1257.48 266.33 1266.23 262.67 1272.81 263.76 1273.73 263.51 1275.56 263 1273.84 256.67 1268.65 256.67 1267.9 252.83 1258.49 253.58 1256.98 251.92"/>
    <polygon class="st0" points="1184.59 240.58 1192.67 236.08 1200 239.08 1200.17 243 1206.17 244.17 1206.83 243.5 1209.08 244.42 1211.91 249.92 1228.33 258.83 1232.74 259.92 1232.51 263.35 1239.24 264.92 1238.74 262.92 1241.49 259.5 1240.57 255.5 1236.49 253.92 1237.59 252.08 1242.82 251.75 1242.66 249.08 1251.57 244.83 1253.65 246.42 1251.4 247.83 1253.23 249 1258.57 249.17 1265.48 245.92 1257.99 242.75 1256.74 244.42 1250.57 242.08 1255.98 239.08 1253.99 238.5 1242.57 246.33 1239.33 244 1233.24 244.08 1230.24 235 1224.33 231.33 1209.75 232.58 1205.1 228.91 1204.89 231.9 1191.33 231.17 1190.59 225.67 1192.44 222.18 1181.01 224.7 1179.67 227.33 1179.76 243.33 1184.92 243.67 1184.59 240.58"/>
    <polygon class="st2" points="1212 273.58 1215.25 272.58 1215.25 270.67 1221.99 268.75 1223.66 264.33 1228.16 262.33 1232.51 263.35 1232.74 259.92 1228.33 258.83 1211.91 249.92 1209.08 244.42 1206.83 243.5 1206.17 244.17 1200.17 243 1200 239.08 1192.67 236.08 1184.59 240.58 1184.92 243.67 1179.76 243.33 1177.92 243.67 1170.93 237.92 1164.68 238.33 1163.15 239.86 1164.11 243.08 1164.59 239.75 1167.68 239.27 1174.33 244.26 1171.24 247.35 1163.88 244.74 1163.88 250.2 1168.15 250.2 1166.02 253.53 1169.58 255.43 1169.05 263.11 1173.17 262.67 1173.84 261.25 1185.59 258.58 1186.42 260 1194.33 261.67 1201.5 266.75 1205.42 266.75 1206.01 271.45 1206.01 271.45 1206.01 271.45 1206.08 272 1212 273.58"/>
    <polygon class="st1" points="1299.97 305.33 1313.47 312.5 1320.63 312.58 1323.38 315 1331.21 317.66 1340.04 317.83 1340.29 310.25 1326.05 308.67 1308.71 297.92 1305.72 299.92 1304.14 298.92 1301.72 301.08 1299.97 305.33"/>
    <polygon class="st2" points="987.39 490.42 996.56 490 997.47 485 1002.89 484.58 1002.39 486.42 1008.64 486.42 1010.97 506.25 1020.38 504.58 1021.72 505.58 1022.38 507.33 1026.38 506 1026.55 508.17 1034.21 509.83 1035.3 507.92 1045.05 516.92 1048.71 517.25 1048.71 510.75 1044.88 511.92 1041.46 507.67 1043.21 503.33 1041.63 496.17 1044.21 492.42 1051.79 490.84 1050.79 487.33 1045.63 480.42 1046.54 478.17 1045.13 470.06 1045.67 468.04 1043.93 461.57 1047.95 456.86 1047.95 448.55 1056.67 439.41 1053.49 437.47 1053.69 432.34 1047.47 426.37 1042.75 428.86 1036.78 424.38 1035.71 423.17 1013.9 425.62 1011.66 429.85 997.61 424 993.26 428.36 993.51 431.84 988.53 453.48 980.82 460.95 980.58 467.66 972.62 475.62 971.62 471.64 967.39 474.13 966.14 473.14 962.92 474.88 961.56 476.73 961.67 476.87 962.73 480.18 982.64 479.5 987.39 490.42"/>
    <polygon class="st5" points="965.65 438.56 972.37 438.56 980.58 441.29 980.08 434.33 975.19 429.02 972.12 419.65 977.09 412.69 970.38 400.5 977.59 400 973.11 385.07 967.89 381.59 972.87 392.29 967.64 395.52 955.95 418.41 952.52 414.97 944.02 420.65 942.24 426.09 949.74 433.58 948.36 438.56 956.45 438.56 965.65 438.56"/>
    <polygon class="st0" points="966.14 473.14 967.39 474.13 971.62 471.64 972.62 475.62 980.58 467.66 980.82 460.95 988.53 453.48 993.51 431.84 983.06 432.34 980.58 441.29 972.37 438.56 965.65 438.56 965.41 444.03 971.13 443.04 969.13 451.24 972.62 452.49 970.63 462.19 962.67 458.95 962.67 461.69 957.74 461.69 959.44 467.16 955.68 469.62 960.21 475.1 963.91 471.39 966.14 473.14"/>
    <polygon class="st1" points="957.74 461.69 962.67 461.69 962.67 458.95 970.63 462.19 972.62 452.49 969.13 451.24 971.13 443.04 965.41 444.03 965.65 438.56 956.45 438.56 955.21 445.28 946.51 445.28 943.77 455.22 955.68 469.62 959.44 467.16 957.74 461.69"/>
    <polygon class="st5" points="1112.63 397.26 1118.1 403.98 1136.75 409.7 1137.5 411.94 1124.57 425.12 1109.39 429.85 1104.84 435.54 1104.84 454.15 1108.49 459.39 1134.01 434.33 1154.9 401.49 1156.4 389.55 1122.08 397.01 1114.9 394.45 1114.16 395.37 1112.63 397.26"/>
    <g>
      <polygon class="st5" points="966.14 473.14 963.91 471.39 960.21 475.1 961.56 476.73 962.92 474.88 966.14 473.14"/>
      <polygon class="st5" points="969.29 536.92 991.81 536.92 994.31 539.08 1006.64 540.08 1016.74 537.96 1009.77 531.88 1009.72 515 1019.8 514.92 1020.38 504.58 1010.97 506.25 1008.64 486.42 1002.39 486.42 1002.89 484.58 997.47 485 996.56 490 987.39 490.42 982.64 479.5 962.73 480.18 966.9 493.28 963.91 496.27 969.88 508.95 963.17 514.92 958.45 536.47 966.57 534.5 969.29 536.92"/>
    </g>
    <polygon class="st5" points="1074.42 507.35 1074.53 507.83 1073.29 511.08 1074.81 517.5 1075.2 517.5 1079.12 523.25 1079.12 530.66 1076.2 531.08 1076.2 535.33 1071.04 529.58 1072.79 522.41 1067.95 522.92 1065.43 520.2 1050.79 524.92 1051.63 528.25 1051.79 530.08 1056.21 530.17 1064.62 533.58 1064.46 543.42 1063.21 544.17 1065.04 548.92 1062.12 553.33 1062.2 556.75 1056.21 562.08 1059.79 572.33 1059.54 579.83 1060.37 584.17 1065.71 584.24 1066.12 583.58 1061.65 579.85 1078.06 570.15 1074.33 550 1103.43 529.11 1101.93 502.24 1087.6 508.33 1074.42 507.35"/>
    <polygon class="st1" points="1104.84 435.54 1109.39 429.85 1102.68 428.11 1096.71 432.34 1090.25 431.59 1078.56 426.37 1072.34 426.12 1069.92 428.31 1074.94 439.55 1069.62 448.67 1069.95 450.5 1073.95 451.5 1069.48 453.5 1069.47 454.62 1088.09 465.17 1088.09 467.11 1095.03 472.6 1108.49 459.39 1104.84 454.15 1104.84 435.54"/>
    <polygon class="st2" points="1023.36 536.56 1016.74 537.96 1006.64 540.08 994.31 539.08 991.81 536.92 969.29 536.92 966.57 534.5 958.45 536.47 957.94 538.81 972.12 561.94 972.28 563.33 972.59 566.11 975.1 588.06 982.21 593.03 985.23 590.16 986.81 593.58 995.39 594.83 999.72 592.08 999.72 573.67 999.72 560 1002.85 560 1004.72 557.75 1004.72 541.58 1007.05 541.5 1016.22 540 1018.13 542.25 1023.38 539.17 1026.05 539 1023.36 536.56"/>
    <g>
      <polygon class="st2" points="1075.95 287.12 1074.56 289.3 1075.79 291.12 1074.3 291.75 1074.08 293.19 1075.73 293.35 1077.5 291.98 1077.5 288.25 1075.95 287.12"/>
      <polygon class="st2" points="1071.66 295.6 1072.96 292.39 1072.23 291.55 1071.1 293.73 1070.99 293.73 1071.04 293.89 1071.66 295.6"/>
    </g>
    <polygon class="st5" points="1065.13 339.8 1068.86 341.54 1077.97 333.41 1060.9 301.49 1070.6 310.45 1074.08 302.32 1071.66 295.6 1071.04 293.89 1070.99 293.73 1059.28 294.4 1059.04 292.41 1054.31 291.79 1044.73 295.77 1024.59 290.73 1024.59 339.8 1065.13 339.8"/>
    <polygon class="st5" points="880.85 291.54 881.35 294.53 856.48 305.97 856.58 311.44 856.62 313.69 871.38 323.44 918.4 354.48 920.63 354.17 929.1 352.98 959.19 331.84 955.4 327.82 951.73 327.61 947 318.91 949.21 316.7 946.75 299.5 948.48 297.77 946.69 295.98 945.51 290.05 936.56 280.1 941.28 275.37 941.28 266.42 932.08 264.18 926.86 266.92 922.13 264.43 902.73 267.41 891.79 275.37 894.03 289.3 880.85 291.54"/>
    <polygon class="st0" points="1071.66 295.6 1074.08 302.32 1075.08 300 1074.97 301.31 1077.5 291.98 1075.73 293.35 1074.08 293.19 1074.3 291.75 1075.79 291.12 1074.56 289.3 1075.95 287.12 1077.5 288.25 1077.69 286.57 1077.5 284.5 1075.92 284.45 1072.23 291.55 1072.96 292.39 1071.66 295.6"/>
    <polygon class="st1" points="950.48 291.54 951.23 295.52 949.57 297.77 948.48 297.77 946.75 299.5 949.21 316.7 947 318.91 951.73 327.61 955.4 327.82 959.19 331.84 970.63 336.82 974.85 334.82 979.58 332.59 1017.38 351 1019.86 350.48 1024.59 349.5 1024.59 339.8 1024.59 290.73 1016.38 288.68 1015.64 286.57 1008.68 284.33 999.85 288.56 999.23 291.42 1000.84 294.28 995.99 299.38 986.42 294.28 977.71 293.28 976.1 287.31 966.02 285.2 963.17 286.07 957.45 284.64 957.45 287.56 950.48 291.54"/>
    <polygon class="st0" points="936.56 280.1 945.51 290.05 946.69 295.98 948.48 297.77 949.57 297.77 951.23 295.52 950.48 291.54 957.45 287.56 957.45 284.64 955.21 284.08 954.71 281.09 951.23 281.59 949.74 279.35 955.46 273.63 952.22 269.4 955.71 264.43 951.73 265.67 949.74 262.44 941.28 266.42 941.28 275.37 936.56 280.1"/>
    <polygon class="st5" points="1083.14 278.8 1081.38 276.56 1079.6 276.63 1079.68 277.24 1075.92 284.45 1077.5 284.5 1083.14 278.8"/>
    <polygon class="st2" points="1083.14 278.8 1077.5 284.5 1077.69 286.57 1078.99 286.57 1083.47 288.81 1093.73 283.21 1105.69 277.3 1106.49 267.65 1111.52 264.67 1110.78 263.42 1093.73 266.79 1091.49 265.11 1086.64 267.16 1083.1 265.67 1082.91 268.66 1080.67 270.52 1078.77 270.17 1079.6 276.63 1081.38 276.56 1083.14 278.8"/>
    <g>
      <polygon class="st2" points="833.85 343.53 833.85 335.32 839.57 332.59 839.82 319.65 856.73 319.65 856.62 313.69 856.58 311.44 833.92 311.53 833.6 311.69 832.48 316.04 826.76 318.53 825.14 326.87 814.2 341.54 815.59 343.33 815.59 343.33 833.85 343.53"/>
      <polygon class="st2" points="856.58 311.44 856.48 305.97 881.35 294.53 880.85 291.54 894.03 289.3 891.79 275.37 886.32 272.64 877.12 274.38 873.43 270.8 870.19 271.2 865.74 280.04 853.21 286.85 853.49 288.99 850.14 292.44 851.63 298.13 847.4 304.73 833.92 311.53 856.58 311.44"/>
    </g>
    <polygon class="st5" points="1128.6 250.33 1129.52 249.42 1126.61 246.75 1127.77 245.75 1124.83 243.46 1124.44 243.67 1117.11 244.42 1118.27 249.17 1121.11 249.75 1123.19 251.26 1123.52 251.08 1128.77 252.25 1130.6 255.75 1132.35 255.58 1132.44 252.25 1128.6 250.33"/>
    <polygon class="st0" points="1117.11 244.42 1124.44 243.67 1124.83 243.46 1124.83 243.46 1124.83 243.46 1126.35 242.67 1132.19 244.75 1133.1 243.42 1130.69 241.5 1132.52 240.58 1124.35 236.17 1118.61 237 1118.2 235.59 1103.19 232.25 1100.36 232.17 1100.11 232.63 1105.66 235.82 1109.77 241.79 1108.84 242.24 1113.36 242.08 1117.11 244.42"/>
    <g>
      <polygon class="st2" points="967.71 217.13 961.31 216.68 959.32 214.69 955.51 214.69 954.75 216.53 952.03 215.83 952.16 217.26 950.2 216.88 950.3 218.84 946.57 217.16 945.01 220.74 941.81 217.54 939.29 220.71 934.91 219.96 933.51 220.8 935.75 222.67 932.76 224.16 935.03 226.42 933.86 227.59 936.21 229.2 938.17 229.1 937.6 231.55 945.26 226.87 960.05 242.11 975.66 247.57 980.33 255.22 977.2 259.19 980.19 260.68 985.55 254.48 982.63 250.6 984.55 246.74 991.69 250.5 992.08 248.09 979.53 242.11 980.5 240.28 973.36 239.89 970.18 237.38 967.67 231.49 961.2 228.89 962.17 224.93 960.63 223.48 967.48 220.83 967.48 220.83 967.71 217.13"/>
      <polygon class="st2" points="975.85 259.89 963.13 258.8 961.49 261.31 975.97 266.53 975.85 259.89"/>
      <polygon class="st2" points="941.72 254.85 948.06 254.1 948.43 243.47 940.22 246.08 941.72 254.85"/>
    </g>
    <g>
      <polygon class="st0" points="936.21 229.2 933.86 227.59 935.03 226.42 932.76 224.16 935.75 222.67 933.51 220.8 934.91 219.96 933.88 217.72 931.37 218.1 931.46 219.5 929.69 219.5 930.24 217.26 934.54 212.13 936.96 212.69 937.52 212.13 940.13 204.76 931.55 202.52 928.75 202.42 924.28 200.75 924.18 199.16 920.73 200.19 920.55 198.51 915.88 197.29 915.32 195.8 913.55 196.27 912.06 193.74 908.7 194.78 900.5 203.73 889.31 200.75 890.8 205.97 876.62 206.72 877.37 211.19 888.56 213.43 894.53 223.88 890.05 232.84 892.94 233.58 892.66 234.51 903.48 236.66 903.48 235.35 906.93 236.38 906.93 236.67 907.96 236.67 908.52 237.41 915.55 237.85 914.67 234.33 931.83 235.07 937.6 231.55 938.17 229.1 936.21 229.2"/>
      <polygon class="st0" points="947.31 234.89 942.65 238.06 943.21 241.42 946.19 242.91 947.31 234.89"/>
    </g>
    <g>
      <polygon class="st1" points="907.63 237.92 906.93 237.22 906.93 236.67 906.93 236.38 903.48 235.35 903.48 236.66 892.66 234.51 892.94 233.58 890.05 232.84 859.46 229.85 854.24 233.58 855.97 240.06 859.09 239.18 859.18 240.58 866.64 239.83 868.51 241.7 865.43 244.59 865.43 251.31 862.17 251.31 865.06 254.57 863.01 257.65 864.78 259.23 862.47 261.54 862.47 263.43 864.68 263.43 872.15 270.15 876.62 266.42 889.31 265.67 898.26 258.21 896.77 252.24 903.48 244.78 916.16 240.3 915.55 237.85 908.52 237.41 907.63 237.92"/>
      <polygon class="st1" points="911.5 252.05 915.42 253.92 917.47 250.19 911.5 252.05"/>
    </g>
    <g>
      <polygon class="st5" points="603.57 710.95 611.03 706.96 598.09 706.47 594.11 710.95 603.57 710.95"/>
      <polygon class="st5" points="718.46 725.37 719.95 720.9 711.5 720.9 718.46 725.37"/>
      <polygon class="st5" points="867.86 165.86 872.15 168.84 870.47 173.51 875.32 169.22 874.38 176.49 882.97 174.81 881.1 177.61 886.32 182.65 875.88 184.51 880.35 187.13 872.52 189.92 886.32 192.72 878.11 194.22 871.96 200 906.84 194.03 902.36 191.98 909.08 187.13 906.65 185.26 899.75 185.26 901.43 183.4 890.8 171.08 882.22 170.15 886.32 168.84 886.32 167.16 891.54 161.57 879.24 162.13 886.32 156.53 874.76 156.34 871.03 161.01 872.89 164.18 867.86 165.86"/>
      <polygon class="st5" points="869.72 157.28 864.31 158.58 864.68 161.94 869.72 157.28"/>
      <polygon class="st5" points="863.09 179.3 864.92 178.23 867.6 179.57 872.89 177.98 868.41 173.32 863.11 173.59 859.46 178.12 863.09 179.3"/>
    </g>
    <polygon class="st2" points="851.44 193.1 868.23 188.99 869.91 185.26 867.3 179.66 867.6 179.57 864.92 178.23 863.09 179.3 859.46 178.12 863.11 173.59 857.6 173.88 856.29 176.12 859.46 177.05 857.78 178.54 849.76 177.98 850.51 180.78 848.83 183.02 854.61 184.14 847.53 189.55 851.44 193.1"/>
    <polygon class="st0" points="1060.8 274.44 1064.83 277.52 1070.3 274.91 1069.58 273.72 1072.91 270.87 1060.8 274.44"/>
    <g>
      <polygon class="st0" points="1031.16 240.93 1030.09 241.39 1030.25 243.22 1021.55 242.16 1014.53 243.07 1004.93 245.66 1000.73 252.07 1004.57 256.72 1015.39 259.33 1004.94 260.07 1008.68 266.04 1015.39 267.16 1013.53 263.43 1017.25 263.06 1016.51 260.07 1022.85 261.19 1015.39 254.1 1012.41 246.64 1019.87 250.37 1018.37 245.89 1029.78 246.67 1032.81 242.58 1031.16 240.93"/>
      <polygon class="st0" points="1018.52 271.58 1017.09 273.72 1023.03 275.62 1031.82 274.44 1018.52 271.58"/>
    </g>
    <polygon class="st2" points="1298.52 409.33 1299.64 419.03 1301.88 420.15 1308.59 417.16 1308.97 413.06 1300.01 400.37 1298.52 409.33"/>
    <polygon class="st0" points="1446.99 349.63 1442.14 356.72 1449.23 359.33 1454.82 350.37 1446.99 349.63"/>
    <polygon class="st5" points="1365.67 382.09 1361.19 387.31 1363.43 393.66 1365.67 382.09"/>
    <polygon class="st1" points="1473.84 426 1476.42 428.33 1476.42 424.59 1469.28 426.67 1473.48 430.3 1473.84 426"/>
    <g>
      <polygon class="st5" points="1406.03 421 1401.11 416.5 1399.45 417 1400.36 417.91 1404.09 435.08 1421.25 444.03 1416.02 434.33 1416.77 423.13 1410.36 418.64 1409.36 420.67 1406.03 421"/>
      <polygon class="st5" points="1464.84 442.25 1472.34 442.83 1478.84 428.25 1489.49 428.85 1496.6 422.76 1482.05 414.18 1477.58 424.25 1476.42 424.59 1476.42 428.33 1473.84 426 1473.48 430.3 1469.28 426.67 1468.62 426.87 1466.01 432.46 1455.57 435.82 1454.82 441.42 1446.99 439.92 1452.51 445.75 1464.84 442.25"/>
    </g>
    <g>
      <polygon class="st2" points="1526.82 401.12 1519.73 408.96 1516.37 406.72 1510.03 410.07 1509.28 416.04 1517.49 411.94 1520.48 413.06 1519.73 418.66 1527.19 422.01 1527.56 414.18 1532.41 416.42 1530.92 404.1 1526.82 401.12"/>
      <polygon class="st2" points="1500.7 377.24 1502.94 377.24 1502.94 381.72 1509.66 380.97 1520.85 386.94 1521.97 392.54 1528.31 393.28 1525.7 387.69 1520.48 385.45 1518.24 380.22 1511.52 377.24 1507.79 377.61 1507.05 370.9 1512.64 365.3 1510.4 357.09 1502.19 357.09 1500.7 369.03 1498.09 369.03 1500.7 377.24"/>
      <polygon class="st2" points="1507.42 383.96 1501.08 383.58 1506.3 388.81 1507.42 383.96"/>
      <polygon class="st2" points="1509.66 397.76 1516.75 393.28 1510.4 391.04 1509.66 397.76"/>
      <polygon class="st2" points="1511.52 402.24 1516 403.73 1519.73 395.9 1514.88 396.64 1511.52 402.24"/>
      <polygon class="st2" points="1519.41 402.61 1522.39 401.12 1519.03 399.25 1519.41 402.61"/>
      <polygon class="st2" points="1524.82 394.37 1521.51 394.85 1525.06 398.69 1524.82 394.37"/>
      <polygon class="st2" points="1495.63 397.14 1485.48 408.31 1487.37 407.78 1498.44 397.48 1496.94 393.01 1495.63 397.14"/>
    </g>
    <polygon class="st1" points="1509.78 325.37 1507.54 323.38 1502.82 326.62 1499.34 334.33 1503.81 341.04 1509.78 325.37"/>
    <g>
      <polygon class="st5" points="1606.02 234.33 1601.79 233.08 1597.82 236.57 1599.06 242.54 1605.77 240.8 1601.79 237.31 1616.96 239.8 1618.71 235.07 1627.91 233.58 1625.67 228.61 1620.94 230.35 1609.5 222.64 1607.52 224.13 1606.02 234.33"/>
      <polygon class="st5" points="1586.87 265.92 1585.13 262.19 1576.68 272.89 1575.19 270.65 1563.5 271.64 1553.55 279.35 1560.26 281.59 1560.76 279.35 1575.43 275.12 1575.43 279.1 1577.67 282.84 1584.14 278.36 1582.64 275.87 1600.06 274.88 1603.78 271.89 1604.78 259.2 1610.75 251.99 1607.02 246.52 1606.52 242.54 1598.56 246.52 1597.82 249.5 1600.06 250.99 1596.82 258.71 1586.87 265.92"/>
      <polygon class="st5" points="1547.58 284.08 1548.08 287.56 1552.06 285.32 1550.57 292.79 1555.29 294.53 1560.02 284.08 1552.3 280.6 1547.58 284.08"/>
      <polygon class="st5" points="1571.45 283.58 1572.95 280.1 1569.71 277.61 1561.51 282.34 1564.24 287.31 1567.72 282.59 1571.45 283.58"/>
    </g>
    <polygon class="st0" points="1722.66 557.21 1736.09 562.69 1719.67 550.75 1722.66 557.21"/>
    <g>
      <polygon class="st1" points="1685.6 488.1 1689.27 487.09 1681.69 482.5 1685.6 488.1"/>
      <polygon class="st1" points="1705.63 491.89 1701.84 491.47 1707.16 498.54 1705.63 491.89"/>
      <polygon class="st1" points="1692.2 488.61 1699.4 493.76 1695.85 488.73 1692.2 488.61"/>
      <polygon class="st1" points="1700.24 495.04 1698.14 497.73 1704.27 501.6 1700.24 495.04"/>
      <polygon class="st1" points="1708.34 499.98 1706.24 502.67 1710.79 504.82 1708.34 499.98"/>
    </g>
    <g>
      <polygon class="st0" points="1404.09 438.43 1403.34 441.04 1388.05 423.88 1374.24 422.01 1393.27 440.67 1395.14 448.88 1406.33 464.55 1422.37 478.36 1429.45 477.98 1429.83 464.92 1433.93 462.69 1427.22 456.34 1424.61 462.31 1416.77 452.61 1419.01 448.51 1404.09 438.43"/>
      <polygon class="st0" points="1476.08 494.4 1478.32 490.67 1464.15 486.94 1470.49 483.21 1452.96 481.72 1450.72 484.33 1442.14 482.84 1436.17 478.36 1429.45 479.85 1425.72 484.7 1432.07 485.08 1431.69 487.69 1476.08 494.4"/>
      <polygon class="st0" points="1526.82 491.79 1518.24 497.76 1514.51 504.48 1536.14 492.54 1526.82 491.79"/>
      <polygon class="st0" points="1500.33 495.9 1493.99 498.51 1503.69 501.49 1500.33 495.9"/>
      <polygon class="st0" points="1484.29 491.04 1480.93 490.3 1479.44 494.4 1486.16 495.52 1495.11 492.54 1489.14 489.18 1484.29 491.04"/>
      <polygon class="st0" points="1448.48 455.22 1451.09 465.67 1458.55 463.81 1459.67 467.16 1471.61 466.79 1473.47 470.52 1478.69 467.91 1481.31 470.15 1480.19 456.72 1488.39 453.73 1488.76 444.78 1495.48 445.52 1486.16 431.72 1489.49 428.85 1478.84 428.25 1472.34 442.83 1464.84 442.25 1452.51 445.75 1446.99 439.92 1442.88 447.76 1448.48 455.22"/>
      <polygon class="st0" points="1498.09 453.73 1492.12 465.3 1497.35 468.66 1496.23 478.73 1501.82 478.73 1501.45 464.55 1502.94 462.31 1504.06 468.28 1508.91 474.63 1513.01 472.01 1512.27 478.73 1516.37 475.75 1511.52 467.54 1511.89 464.18 1506.3 460.08 1517.12 454.48 1513.76 452.24 1504.43 457.46 1501.08 451.49 1501.82 447.76 1521.59 448.51 1526.44 441.79 1524.21 440.3 1518.61 444.4 1504.43 442.54 1499.21 444.4 1498.09 453.73"/>
      <polygon class="st0" points="1514.88 491.42 1498.46 490.67 1498.46 494.03 1506.3 495.15 1514.88 491.42"/>
      <polygon class="st0" points="1539.5 466.79 1553.67 468.66 1551.44 463.81 1541.36 463.06 1539.5 466.79"/>
      <polygon class="st0" points="1587.25 456.34 1576.43 467.54 1571.58 462.69 1570.46 453.36 1558.9 451.12 1555.17 456.72 1558.9 457.46 1560.76 460.82 1568.97 461.57 1559.27 464.92 1565.24 470.89 1567.85 467.91 1589.49 476.12 1592.84 482.09 1588.37 492.16 1600.3 489.92 1604.6 495.88 1604.6 462.94 1587.25 456.34"/>
      <polygon class="st0" points="1438.78 460.82 1436.17 465.3 1442.51 465.67 1438.78 460.82"/>
      <polygon class="st0" points="1531.67 458.95 1521.97 456.72 1521.97 460.82 1531.67 458.95"/>
      <polygon class="st0" points="1533.53 469.78 1536.14 464.55 1529.05 464.55 1533.53 469.78"/>
      <polygon class="st0" points="1542.11 442.54 1536.51 441.04 1536.89 453.73 1541.36 453.73 1539.5 448.13 1543.6 448.13 1542.11 442.54"/>
      <polygon class="st0" points="1572.7 480.64 1572.26 475.62 1569.32 480.19 1572.7 480.64"/>
      <polygon class="st0" points="1558.28 489.59 1557.84 484.58 1554.9 489.14 1558.28 489.59"/>
      <polygon class="st0" points="1516.44 494.59 1520.36 491.43 1514.94 491.53 1516.44 494.59"/>
      <polygon class="st0" points="1537.05 459.44 1541.48 457.06 1536.14 456.15 1537.05 459.44"/>
      <polygon class="st0" points="1577.08 456.57 1582 455.51 1577.11 453.16 1577.08 456.57"/>
    </g>
    <g>
      <polygon class="st2" points="1637.23 479.1 1627.91 477.24 1627.53 471.64 1604.6 462.94 1604.6 495.88 1605.15 496.64 1616.34 494.78 1619.33 487.69 1629.77 489.18 1638.72 500.37 1654.02 502.24 1642.83 494.78 1633.88 483.58 1640.59 483.58 1637.23 479.1"/>
      <polygon class="st2" points="1654.52 476.12 1641.09 478.61 1651.53 482.59 1660.98 478.11 1659.99 468.66 1654.52 476.12"/>
      <polygon class="st2" points="1676.9 485.08 1679.39 481.59 1671.43 477.12 1676.9 485.08"/>
      <polygon class="st2" points="1666.34 471.01 1660.04 467.43 1664.38 473.8 1666.34 471.01"/>
    </g>
    <polygon class="st1" points="1730.82 522.65 1735.15 529.02 1737.12 526.23 1730.82 522.65"/>
    <g>
      <polygon class="st2" points="1784.33 540.3 1792.79 541.79 1790.3 534.83 1784.33 540.3"/>
      <polygon class="st2" points="1798.98 531.28 1792.31 534.11 1800 534.53 1798.98 531.28"/>
    </g>
    <g>
      <polygon class="st5" points="963.75 143.3 960.7 141.77 959.93 132.92 970.15 129.57 972.44 120.41 982.05 114.16 980.83 112.63 1000.05 107.6 1000.5 104.55 1004.32 105.16 1007.52 103.02 1012.55 106.23 1027.65 106.23 1029.02 102.56 1039.24 99.82 1044.89 101.19 1043.82 104.85 1054.19 102.26 1055.79 99.6 1039.26 93.28 993.76 100.75 974.36 108.21 979.58 110.45 964.66 116.42 960.93 124.63 940.04 135.07 925.12 140.3 927.35 148.51 927.35 157.46 937.8 158.96 952.72 151.49 954.88 155.81 957.19 155.81 963.75 143.3"/>
      <polygon class="st5" points="993.76 57.46 1021.36 63.43 1012.41 53.73 1034.04 47.76 951.98 50 983.31 68.66 993.76 57.46"/>
    </g>
    <polygon class="st2" points="453.23 377.8 460.51 380.22 461.4 382.8 464.28 381.58 463.58 385.11 465.54 385.08 466.48 381.16 470.95 380.41 475.24 375.93 478.04 376.68 482.2 375.43 478.68 369.58 459.72 370.32 453.79 374.63 453.23 377.8"/>
    <polygon class="st2" points="485.62 410.56 491.11 409.08 493.67 414.57 499.19 411.33 498.69 408.5 504.44 405.08 509.19 408 506.27 410.37 510.41 414.44 511.61 411.57 513.66 410.63 513.38 407.37 507.78 403.17 502.19 401.92 492.36 406.08 488.12 401.88 485.5 402.8 485.62 410.56"/>
    <polygon class="st2" points="600.42 409.05 595.98 412.19 598.59 414.8 593.87 416.54 594.3 419.15 593 420.22 596.66 423.88 600.02 423.88 599.55 427.51 602.44 430.41 600.21 433.58 601.51 441.23 606.17 443.84 616.47 440 613.2 433.08 611.71 433.21 609.66 429.6 610.9 424.87 613.41 424.87 614.12 421.15 613.91 421.17 600.06 407.48 600.06 407.48 600.42 409.05"/>
    <polygon class="st1" points="511.61 411.57 510.41 414.44 513.19 417.17 512.53 433.33 506.44 439 504.94 443.03 511.89 445.93 513.32 448.2 517.51 448.68 518.34 447.48 523.46 450.47 525.39 450.47 534.83 462.42 541.4 460.39 549.29 463.14 546.42 468.64 550.59 471.08 552.83 454.85 549.66 447.2 554.51 447.01 553.95 444.59 550.59 444.4 550.6 441.42 559.36 441.42 562.35 439.55 564.4 444.22 565.89 444.22 564.02 438.06 560.29 435.82 563.65 433.08 560.29 427.86 563.03 418.66 552.96 419.65 549.23 414.8 539.81 414.8 537.66 412.69 538.66 408.46 535.3 403.61 533.06 404.48 536.29 395.65 540.39 391.55 543.85 390.67 544.27 389.5 541.83 387.64 538.96 388.8 533.71 393.26 525.68 394.18 523.69 396.42 515.11 408.67 513.38 407.37 513.66 410.63 511.61 411.57"/>
    <polygon class="st0" points="471.4 394.99 470.28 401.37 474.28 402.25 476.2 400.17 484.07 410.97 485.62 410.56 485.5 402.8 488.12 401.88 481.83 395.63 480.28 396.46 471.4 394.99"/>
    <polygon class="st0" points="454.35 360.63 444.84 360.82 445.21 363.43 442.6 363.62 448.38 369.4 441.48 369.22 439.24 373.32 439.02 377.38 440.79 378.92 447.79 381.03 453.23 377.8 453.79 374.63 459.72 370.32 455.29 370.5 453.42 370.15 454.35 360.63"/>
    <polygon class="st2" points="401.75 311.69 396.66 304.35 392.43 300.99 387.21 300.75 385.47 303.98 384.1 305.1 377.26 301.99 376.02 297.51 367.56 291.04 361.09 291.17 358.86 293.28 345.05 293.41 328.14 287.93 326.28 286.57 314.76 287.54 320.69 302.86 330.88 308.26 323.29 310.95 338.65 319.83 337.73 326.98 348.32 332.17 350.32 337.78 352.9 332.75 350.82 329.75 346.49 328.08 342.53 316.18 327.45 300.58 325.55 290.7 335.23 293.7 337.73 305.38 354.48 318.58 350.92 321.58 373.12 336.58 370.12 347.98 373.12 353.98 417.72 371.58 426.5 366.58 439.02 377.38 439.24 373.32 441.48 369.22 448.38 369.4 442.6 363.62 445.21 363.43 444.84 360.82 454.35 360.63 457.71 357.28 460.34 358.35 466.2 344.25 463.62 342.26 448.21 344.59 446.46 351.17 443.96 356.67 427.55 359.25 419.05 353.83 409.7 338.98 413.51 320.42 404.12 318.04 401.75 311.69"/>
    <polygon class="st5" points="454.35 360.63 453.42 370.15 455.29 370.5 460.34 358.35 457.71 357.28 454.35 360.63"/>
    <polygon class="st1" points="475.24 375.93 470.95 380.41 466.48 381.16 465.54 385.08 463.58 385.11 463.2 387 471.45 394.67 471.4 394.99 480.28 396.46 481.83 395.63 481.61 395.42 483.95 378.33 482.2 375.43 478.04 376.68 475.24 375.93"/>
    <polygon class="st2" points="554.19 518.12 555.98 520.87 552.52 524.33 554.19 526.25 552.4 527.8 555.62 531.98 551.68 535.93 552.36 537.64 552.36 537.64 552.36 537.64 555.27 544.89 557.66 546.57 555.86 551.47 558.49 555.05 560.76 564.25 564.1 564.25 568.71 558.98 576.86 560.76 578.34 564.54 580.27 560.02 585.75 559.94 586.71 561.06 588.57 552.61 591.16 548.16 604.65 546.83 608.8 549.05 609.34 551.12 612.7 540.3 607.67 535.82 608.04 531.53 599.09 530.97 598.34 519.03 591.07 517.54 584.35 512.5 579.32 512.5 573.72 508.21 573.35 497.95 566.82 499.63 557.64 505.22 552.3 505.22 556.7 512.5 554.19 518.12"/>
    <polygon class="st1" points="604.65 546.83 591.16 548.16 588.57 552.61 586.71 561.06 594.58 568.86 610.9 575.75 612.27 577.49 606.42 586.19 618.11 588.18 619.11 586.44 621.59 587.19 626.04 582.75 626.88 578.17 628.56 569.78 626.5 569.03 624.45 570.15 622.4 569.22 620.72 561.01 610.09 560.45 611.03 555.22 609.34 551.12 608.8 549.05 604.65 546.83"/>
    <g>
      <polygon class="st2" points="446.89 455.22 443.91 448.75 441.92 456.22 446.89 455.22"/>
      <polygon class="st2" points="497.67 470.43 497.91 472.82 502.09 472.23 502.45 474.5 505.68 474.5 509.62 464.81 519.9 460.63 523 454.66 524.08 454.89 521.81 450.71 523.46 450.47 518.34 447.48 517.51 448.68 513.32 448.2 511.89 445.93 504.94 443.03 504.61 443.92 500.27 444.57 499.07 451.17 494.37 457.48 497.14 463.52 500.53 460.83 500.11 466 498.22 467.62 499.23 470.43 497.67 470.43"/>
    </g>
    <polygon class="st1" points="610.9 424.87 609.66 429.6 611.71 433.21 613.2 433.08 616.47 440 617.18 439.74 620.91 440.67 619.23 436.94 625.01 436.94 627.07 438.25 630.21 432.35 627.75 429.29 627.65 425.11 629.82 421.54 627.08 420.42 614.12 421.15 613.41 424.87 610.9 424.87"/>
    <polygon class="st0" points="550.7 538.3 552.36 537.64 551.68 535.93 555.62 531.98 552.4 527.8 554.19 526.25 552.52 524.33 555.98 520.87 554.19 518.12 556.7 512.5 552.3 505.22 546.86 505.22 547.05 497.76 539.22 500.56 538.1 497.39 533.81 497.01 535.3 494.96 529.33 486.75 533.81 482.28 535.49 475.56 539.96 473.32 550.59 471.08 546.42 468.64 549.29 463.14 541.4 460.39 534.83 462.42 525.39 450.47 523.46 450.47 521.81 450.71 524.08 454.89 523 454.66 519.9 460.63 509.62 464.81 505.68 474.5 502.45 474.5 502.09 472.23 497.91 472.82 497.67 470.43 499.23 470.43 498.22 467.62 493.11 471.99 495.94 481.58 501.94 487 520.06 525.56 547.85 541.75 550.92 540.23 550.7 538.3"/>
    <polygon class="st5" points="453.23 377.8 447.79 381.03 458.21 384.17 461.4 382.8 460.51 380.22 453.23 377.8"/>
    <g>
      <polygon class="st5" points="556.56 724.38 556.73 714.09 555.32 712.93 549.85 714.92 548.35 719.4 539.4 722.39 553.83 727.86 566.59 725.43 564.89 724.63 556.56 724.38"/>
      <polygon class="st5" points="540.4 709.95 537.66 707.96 538.41 703.11 534.18 703.48 533.43 701.37 532.32 700.62 532.07 696.89 538.28 691.67 538.41 690.17 537.04 689.68 541.52 683.21 540.27 678.48 543.51 676.24 539.47 674.13 543.63 674.13 544.63 672.01 540.65 671.64 541.39 665.05 539.4 665.05 539.15 660.82 541.02 660.82 540.02 653.73 542.64 644.53 545.74 643.04 544.13 633.33 548.23 630.6 547.11 626.62 550.34 621.14 551.2 616.25 546.66 606.8 550.61 601.31 550.01 596.17 555.62 585.77 558.73 584.93 556.7 577.28 557.89 575.37 557.18 573.22 563.27 570.47 564.94 565.1 564.1 564.25 560.76 564.25 558.49 555.05 555.86 551.47 557.66 546.57 555.27 544.89 552.36 537.64 550.7 538.3 550.92 540.23 547.85 541.75 548.43 564.5 541.05 595.16 544.05 614.35 531.44 636.67 532.85 648.5 527.86 655.15 528.46 667.75 530.35 666.92 534.19 658.75 536.85 660.92 531.77 681.67 526.52 679.08 520.06 683.35 528.19 686.25 524.77 697.67 533.85 712.17 528.77 714.75 541.52 719.75 547.76 713.83 556.69 711.69 549.85 709.95 540.4 709.95"/>
    </g>
    <polygon class="st0" points="627.75 429.29 630.21 432.35 627.07 438.25 629.3 439.55 635.83 438.81 643.61 427.17 629.82 421.54 627.65 425.11 627.75 429.29"/>
    <polygon class="st0" points="607.11 619.22 607.99 615.72 608.97 614.74 610.65 602.98 611.58 600.93 620.72 591.6 631.54 585.07 631.54 580.6 629.86 577.43 626.88 578.17 626.04 582.75 621.59 587.19 619.11 586.44 618.11 588.18 606.42 586.19 612.27 577.49 610.9 575.75 594.58 568.86 586.71 561.06 585.75 559.94 580.27 560.02 578.34 564.54 576.86 560.76 568.71 558.98 564.1 564.25 564.94 565.1 563.27 570.47 557.18 573.22 557.89 575.37 556.7 577.28 558.73 584.93 555.62 585.77 550.01 596.17 550.61 601.31 546.66 606.8 551.2 616.25 550.34 621.14 547.11 626.62 548.23 630.6 544.13 633.33 545.74 643.04 542.64 644.53 540.02 653.73 541.02 660.82 539.15 660.82 539.4 665.05 541.39 665.05 540.65 671.64 544.63 672.01 543.63 674.13 539.47 674.13 543.51 676.24 540.27 678.48 541.52 683.21 537.04 689.68 538.41 690.17 538.28 691.67 532.07 696.89 532.32 700.62 533.43 701.37 534.18 703.48 538.41 703.11 537.66 707.96 540.4 709.95 549.85 709.95 556.69 711.69 557.84 711.42 555.18 701.92 570.34 690.5 569.34 685.5 560.25 682.15 565.09 676.25 571.84 675.08 576.84 664.67 581.92 663.08 581.09 660.42 574.92 658.92 574.04 652.15 586.64 657.55 587.24 642.55 594 645 611.91 640.67 618.43 631.75 612.91 628.92 615.43 625.75 607.91 620.25 608.56 620.38 608.56 620.38 607.11 619.22"/>
    <polygon class="st2" points="633.59 612.87 622.59 603.92 620.16 605.22 615.87 600.56 611.58 600.93 610.65 602.98 608.97 614.74 607.99 615.72 607.11 619.22 608.56 620.38 608.56 620.38 626.91 624.08 632.53 618.11 631.91 615.86 633.59 612.87"/>
    <g>
      <polygon class="st0" points="536.29 395.65 533.06 404.48 535.3 403.61 538.66 408.46 537.66 412.69 539.81 414.8 549.23 414.8 552.96 419.65 563.03 418.66 560.29 427.86 563.65 433.08 560.29 435.82 564.02 438.06 565.89 444.22 572.42 446.45 583.61 438.06 579.88 437.13 575.96 428.36 585.85 432.28 586.22 429.1 596.85 426.12 596.66 423.88 593 420.22 594.3 419.15 593.87 416.54 598.59 414.8 595.98 412.19 600.42 409.05 600.06 407.48 600.06 407.48 599.92 407.33 591.75 407.17 595.59 402.83 584.84 398.67 590.59 396.25 578.84 397.67 573.84 399.5 560.51 397.75 557.84 394 551.26 392.25 542.14 395.91 545.11 401.98 541.93 404.75 539.18 400.92 542.04 395.7 543.85 390.67 540.39 391.55 536.29 395.65"/>
      <polygon class="st0" points="548.35 390.75 548.76 392 551.26 392.25 549.76 389 548.35 390.75"/>
    </g>
    <polygon class="st2" points="1038.19 594.9 1036.46 597.42 1034.8 598.17 1036.63 601.58 1040.21 603.33 1040.79 601.5 1045.54 599.58 1046.96 596.75 1042.96 592.83 1038.19 594.9"/>
    <g>
      <polygon class="st0" points="133.92 157.46 134.66 159.7 126.08 161.94 126.08 163.06 129.81 165.67 138.02 163.06 137.28 159.7 139.51 157.46 133.92 157.46"/>
      <polygon class="st0" points="54.61 185.99 67.15 183.21 68.64 179.48 65.65 179.1 64.62 181.27 58.22 182.65 54.5 185.04 54.61 185.99"/>
      <polygon class="st0" points="23.13 189.8 32.7 190.3 35.56 189.18 29.72 188.81 29.34 187.56 23.13 189.8"/>
      <polygon class="st0" points="62.79 149.23 69.51 151.87 72.49 149.88 70.01 147.14 62.54 149.13 62.79 149.23"/>
      <polygon class="st0" points="41.16 130.72 41.16 133.21 45.14 132.71 51.85 135.7 57.32 132.84 52.47 132.96 47.75 130.84 41.16 130.72"/>
      <polygon class="st0" points="18.15 190.05 10.69 190.55 16.16 192.54 18.15 190.05"/>
      <polygon class="st0" points="563.28 360.7 570.74 360.7 572.73 357.71 563.28 356.72 563.28 360.7"/>
      <polygon class="st0" points="562.67 223.6 562.35 222.57 562.76 221.92 560.9 221.41 560.85 214.69 558.24 213.06 555.49 214.13 554.6 213.62 554.65 212.78 553.53 212.59 549.75 216.42 549.57 217.96 548.35 218.94 548.49 220.1 547.7 220.75 547.98 221.27 546.02 222.43 545.65 223.79 544.95 223.18 542.99 223.6 542.25 224.81 525.6 224.81 522.66 226.17 520.66 227.79 518.94 232.08 516.02 233.33 509.61 233.08 504.33 233.6 504.94 234.76 505.36 234.67 505.13 235.12 505.36 235.56 504.77 235.83 504.29 236.77 492.95 241.5 485.87 242.58 482.53 241.42 486.28 236.5 486.75 237.33 487.74 234.78 486.37 230.33 483.62 230.08 481.37 232 478.97 231.09 483.2 228.33 482.95 223.58 474.95 221.17 475.29 223 471.87 224 472.29 226.08 469.45 226.17 467.7 231.08 468.7 235 468.03 239.8 463.95 241.83 462.04 241.17 460.46 234.17 463.2 226.17 460.21 227.33 458.58 227.11 463.95 221.75 472.2 219.5 480.37 220.17 477.28 217.83 473.5 217.66 473.62 216.17 463.87 217.5 456.71 214.25 447.79 217.08 445.12 217 444.71 215.42 439.38 216.08 444.54 212.75 451.45 210.11 426.62 206.22 424.38 202.61 424.38 204.97 285.53 204.97 286.19 208.93 275.94 208.43 280.03 216.31 278.01 237.25 277.15 250.19 297.67 277.75 313.47 284.2 314.76 287.54 326.28 286.57 328.14 287.93 345.05 293.41 358.86 293.28 361.09 291.17 367.56 291.04 376.02 297.51 377.26 301.99 384.1 305.1 385.47 303.98 387.21 300.75 392.43 300.99 396.66 304.35 401.75 311.69 404.12 318.04 413.51 320.42 413.57 320.15 412.3 310.67 417.47 307.17 426.63 302.75 430.96 300.08 452.79 305.33 453.21 298.17 470.88 296.98 473.88 302.98 479.28 298.18 486.7 306.5 487.2 313.58 495.28 324.33 497.86 324.08 499.69 316.08 492.36 296.42 493.53 291.17 522.72 272.39 518.27 261.92 517.11 256.17 519.02 253.42 522.02 261.58 524.69 257.75 522.1 252.5 525.6 255.25 530.84 248.37 529.18 247.63 540.26 245.41 538.43 244.17 530.84 245.41 533.98 243.75 542.43 243.17 543.38 240.55 547.11 243.03 550.1 240.8 546.86 239.8 544.63 237.06 549.85 230.6 554.57 229.85 555.4 227.84 563.98 227.24 563.88 224.35 564.02 224.32 563.93 224.16 562.67 223.6"/>
      <polygon class="st0" points="59.65 122.08 69.4 127.17 93.62 127.17 96.59 130.13 66.9 139.55 81.64 151 89.56 150.58 89.14 156.75 113.89 156.83 112.81 160.8 98.42 166.2 98.22 168.58 91.22 168.6 74.79 176.91 78.03 178.79 92.56 172.58 94.82 174.6 134.4 156.6 128.63 154.25 143.4 143.4 141.6 155.4 160.79 148.8 157.8 143.4 181.62 149.83 201.28 151.83 217.19 159.33 226.69 169.17 231.52 167 234.6 174.25 241.17 176.4 242.35 170.17 247.35 175.82 249.68 174.44 250.24 169.46 240.01 166.15 223.15 150.38 212.36 155.09 205.45 147.9 194.95 148.17 194.95 101.44 194.95 101.09 182.29 98.76 175.08 100.75 114.89 92.29 68.9 105.58 68.9 108.5 96.06 118.17 78.56 118.17 59.65 122.08"/>
      <polygon class="st0" points="122.22 355.26 126.49 351.81 120.98 347.81 119.6 351.54 120.84 354.57 122.22 355.26"/>
      <polygon class="st0" points="116.42 347.81 120.42 346.02 116.84 344.64 116.42 347.81"/>
      <polygon class="st0" points="116.15 345.05 116.15 343.53 113.39 343.81 113.66 345.05 116.15 345.05"/>
      <polygon class="st0" points="109.25 343.67 112.15 343.39 110.35 340.91 108.15 341.6 109.25 343.67"/>
      <polygon class="st0" points="103.87 338.56 100.56 339.67 103.46 340.91 103.87 338.56"/>
      <polygon class="st0" points="100.15 340.36 99.18 339.67 98.63 341.33 100.15 340.36"/>
    </g>
    <g>
      <polygon class="st2" points="18.28 122.01 20.52 126.12 36.56 127.98 37.68 122.76 45.51 122.76 51.11 118.66 41.41 115.3 27.23 114.92 0 103.45 0 123.19 8.21 123.13 18.28 122.01"/>
      <polygon class="st2" points="12.31 93.66 0 89.92 2.6 96.11 12.31 93.66"/>
      <polygon class="st2" points="1013.01 174.42 1004.34 174.13 1004.2 174.63 998.28 178.08 1013.62 178.08 1013.01 174.42"/>
      <polygon class="st2" points="1621.19 203.98 1613.23 178.11 1611.74 183.58 1607.76 183.09 1609.25 219.4 1612.74 215.92 1618.21 216.42 1612.74 208.95 1615.22 203.48 1621.19 203.98"/>
      <polygon class="st2" points="1799.5 103.45 1751.01 98.51 1756.97 105.22 1706.99 102.24 1698.78 96.27 1659.24 95.52 1647.3 88.81 1601.05 84.33 1596.57 90.3 1559.27 88.81 1554.79 96.27 1536.89 82.84 1436.91 83.58 1471.23 70.9 1418.26 59.7 1398.87 67.16 1330.98 73.13 1331.72 80.6 1301.13 79.85 1314.56 92.54 1275.02 83.58 1269.05 105.22 1261.59 85.82 1243.68 85.07 1233.24 94.78 1245.18 105.97 1241.45 110.45 1198.17 97.76 1198.92 108.21 1166.84 105.97 1134.76 115.67 1127.3 112.69 1134.01 108.21 1119.09 105.22 1121.33 119.4 1099.69 122.39 1088.5 130.6 1060.9 114.18 1089.25 120.15 1107.9 112.69 1064.63 102.99 1055.79 99.6 1054.19 102.26 1043.82 104.85 1042.45 108.82 1050.07 111.87 1044.89 115.53 1051.14 121.63 1047.73 125.04 1053.12 129.57 1050.38 131.09 1057.85 135.37 1042.39 145.62 1049.04 144 1054.29 141.33 1063.7 145.75 1062.46 149.08 1058.37 148.75 1057.63 150.17 1049.04 144 1042.39 145.62 1048.96 150 1040.64 151.42 1037.57 155.65 1036.95 162.37 1040.6 168.78 1041.08 168.62 1040.6 168.78 1040.77 169.08 1052.82 171.06 1054.65 176.1 1063.65 182.81 1061.21 184.18 1056.48 183.88 1058.92 189.52 1069.14 187.69 1071.12 193.18 1075.69 193.79 1078.29 198.22 1087.13 197.46 1100.4 201.88 1099.18 209.81 1092.32 210.88 1089.85 214.6 1095.97 212.69 1089.25 217.54 1094.1 218.66 1088.13 220.89 1089.25 223.13 1082.91 222.76 1100.11 232.63 1100.36 232.17 1103.19 232.25 1118.2 235.59 1118.61 237 1124.35 236.17 1132.52 240.58 1138.52 244 1142.27 241.13 1137.27 235.23 1137.99 229.77 1133.48 227.39 1137.04 221.93 1145.63 218.43 1140.35 211.25 1132.19 207.92 1137.6 197.75 1144.27 199.83 1142.68 196.92 1160.18 190.5 1178.17 197.33 1186.59 194.42 1197.42 197.58 1206.75 196 1207.67 193.5 1199.83 190 1205 188.33 1204 184.83 1210.25 184.42 1202.9 181.46 1242.47 174.29 1253.57 173.42 1255.57 177.92 1268.06 181.92 1283.06 177.83 1299.97 195.67 1302.97 193.58 1306.97 196.25 1317.57 194.18 1326.13 202.08 1332.71 201 1336.13 204 1338.8 204.17 1361.29 195.33 1371.12 197.17 1372.7 199.83 1386.12 201.33 1391.28 197.5 1388.5 194.12 1394.03 189.42 1410.78 193.5 1411.27 197.17 1416.27 199 1429.52 197.92 1429.27 191.33 1418.27 191.67 1429.52 187.5 1441.44 179.36 1445.77 172.17 1448.85 171.64 1446.24 181.9 1431.35 188.25 1429.27 191.33 1429.52 197.92 1453.1 204.25 1471.18 198.58 1482.67 200.33 1483 200.45 1483.05 200.37 1483 200.45 1488.34 202.33 1497.38 198.33 1495.34 198 1503.65 186.83 1499.75 186.83 1503.83 183.58 1517.3 182.41 1529.52 184.72 1537.99 201.67 1552.74 205.58 1554.48 211.58 1573.23 208.67 1564.73 224.67 1554.32 225.75 1556.07 232.67 1551.46 236.72 1552.14 237.4 1558.52 232.84 1570.46 237.31 1601.05 205.97 1604.03 182.09 1596.57 177.61 1590.6 181.34 1574.19 174.63 1610.75 152.98 1671.18 154.48 1683.86 141.04 1698.78 139.55 1698.78 147.01 1713.71 141.04 1715.2 135.82 1724.15 135.82 1716.69 146.27 1677.15 166.42 1683.86 196.27 1693.56 188.81 1692.07 183.58 1699.53 183.58 1698.78 177.61 1709.23 177.61 1708.48 170.15 1714.45 168.66 1713.71 161.94 1709.23 160.45 1717.44 152.24 1751.01 147.76 1779.36 138.06 1796.52 138.06 1783.09 126.12 1799.5 123.19 1799.5 103.45"/>
      <polygon class="st2" points="1184.75 95.52 1177.28 89.55 1192.21 77.61 1245.18 67.91 1244.43 63.43 1209.36 66.42 1179.53 74.63 1157.89 92.54 1174.3 97.76 1184.75 95.52"/>
      <polygon class="st2" points="1156.4 44.03 1124.32 44.78 1140.73 50.75 1156.4 44.03"/>
      <polygon class="st2" points="1193.7 40.3 1170.57 45.52 1195.94 47.76 1193.7 40.3"/>
      <polygon class="st2" points="1398.87 50.75 1379.47 43.28 1355.59 50 1394.39 55.22 1398.87 50.75"/>
      <polygon class="st2" points="1424.23 55.97 1409.31 52.24 1398.12 59.7 1424.23 55.97"/>
      <polygon class="st2" points="1596.57 65.67 1584.63 75.37 1626.41 73.88 1596.57 65.67"/>
    </g>
    <g>
      <polygon class="st5" points="629.3 439.55 627.07 438.25 625.01 436.94 619.23 436.94 620.91 440.67 617.18 439.74 616.47 440 606.17 443.84 601.51 441.23 600.21 433.58 602.44 430.41 599.55 427.51 600.02 423.88 596.66 423.88 596.85 426.12 586.22 429.1 585.85 432.28 575.96 428.36 579.88 437.13 583.61 438.06 572.42 446.45 565.89 444.22 564.4 444.22 562.35 439.55 559.36 441.42 550.6 441.42 550.59 444.4 553.95 444.59 554.51 447.01 549.66 447.2 552.83 454.85 550.59 471.08 539.96 473.32 535.49 475.56 533.81 482.28 529.33 486.75 535.3 494.96 533.81 497.01 538.1 497.39 539.22 500.56 547.05 497.76 546.86 505.22 552.3 505.22 557.64 505.22 566.82 499.63 573.35 497.95 573.72 508.21 579.32 512.5 584.35 512.5 591.07 517.54 598.34 519.03 599.09 530.97 608.04 531.53 607.67 535.82 612.7 540.3 609.34 551.12 611.03 555.22 610.09 560.45 620.72 561.01 622.4 569.22 624.45 570.15 626.5 569.03 628.56 569.78 626.88 578.17 629.86 577.43 631.54 580.6 631.54 585.07 620.72 591.6 611.58 600.93 615.87 600.56 620.16 605.22 622.59 603.92 633.59 612.87 631.91 615.86 632.53 618.11 640.4 609.75 646.4 605 656.07 592.67 657.65 576.25 677.2 563.36 690.48 563.83 694.97 559.91 704.14 538.42 703.59 513.56 709.8 512.92 715.59 502.16 726.38 493.77 722.79 474.57 715.38 474.75 700.59 461.97 676.73 465.25 676.78 458.18 662.38 452.18 652.9 460 641.41 455.08 650.4 444.17 646.4 438.83 643.61 427.17 635.83 438.81 629.3 439.55"/>
      <polygon class="st5" points="647.74 449.53 658.92 451.17 652.74 458.08 646.15 455.46 647.74 449.53"/>
    </g>
    <g>
      <polygon class="st1" points="593.49 44.03 581.93 44.03 562.53 48.88 575.21 50 573.72 53.73 533.81 58.96 564.77 71.27 594.98 69.03 619.98 77.98 623.71 92.16 634.9 91.42 647.21 96.27 627.81 96.27 624.45 100.75 633.03 103.73 646.84 100.75 644.22 107.09 632.66 108.21 630.42 113.81 644.97 132.09 662.88 145.9 671.08 145.15 674.07 150.37 682.64 149.25 697.57 130.22 694.21 123.88 727.78 118.66 734.12 110.82 739.72 110.45 738.6 107.84 748.67 109.7 771.8 106.34 789.71 99.63 767.7 99.25 772.92 92.54 780.38 97.01 791.94 97.01 790.45 91.79 769.19 85.45 790.08 86.94 789.71 83.21 806.12 76.87 796.79 76.49 796.79 74.25 803.14 73.51 790.08 66.42 796.05 64.92 808.73 66.04 808.36 63.06 791.94 59.33 812.46 49.25 839.69 41.79 824.4 39.92 783.74 45.15 792.32 35.82 769.56 33.21 708.76 32.84 708.01 35.45 687.5 33.21 665.49 33.96 663.99 38.43 644.97 35.82 644.22 39.92 635.65 38.43 631.91 42.16 630.8 36.19 593.12 40.67 593.49 44.03"/>
      <polygon class="st1" points="948.99 172.39 954.96 168.66 951.23 161.19 940.41 167.35 942.13 175.07 951.54 175.67 948.99 172.39"/>
      <polygon class="st1" points="954.98 171.62 960.49 169.75 960.52 175.59 954.98 171.62"/>
    </g>
    <g>
      <polygon class="st1" points="1032.81 242.58 1029.78 246.67 1034.79 247.01 1037.03 244.4 1044.48 244.78 1039.7 239.99 1031.16 240.93 1032.81 242.58"/>
      <polygon class="st1" points="1118.27 249.17 1117.11 244.42 1113.36 242.08 1108.84 242.24 1100.44 246.27 1078.43 242.54 1074.33 238.81 1064.63 239.55 1054.93 245.52 1045.61 244.4 1046.72 245.89 1043.37 248.51 1032.96 248.16 1029.85 252.65 1033.42 252.36 1035.78 257.83 1030.44 256.59 1037.03 264.55 1041.01 264.68 1037.15 267.04 1044.98 266.17 1048.22 269.78 1052.69 268.78 1052.69 265.67 1064.26 269.9 1072.96 265.92 1076.57 267.66 1079.43 264.68 1081.17 266.54 1078.56 268.53 1078.77 270.17 1080.67 270.52 1082.91 268.66 1083.1 265.67 1086.64 267.16 1091.49 265.11 1093.73 266.79 1110.78 263.42 1111.52 264.67 1113.61 263.08 1121.02 263.75 1120.94 265.08 1123.52 263.83 1122.35 261.08 1120.77 260.5 1122.1 258.42 1120.02 252.92 1123.19 251.26 1121.11 249.75 1118.27 249.17"/>
    </g>
    <g>
      <polygon class="st2" points="956.45 438.56 948.36 438.56 946.51 445.28 955.21 445.28 956.45 438.56"/>
      <polygon class="st2" points="944.32 430.46 943.65 434.55 941.13 433.71 944.32 430.46"/>
    </g>
    <polygon class="st1" points="1060.37 584.17 1059.62 586.58 1055.14 585.63 1053.71 582.33 1056.29 578.75 1059.54 579.83 1059.79 572.33 1056.21 562.08 1046.54 560.92 1034.55 568.75 1033.96 571.33 1029.05 573.75 1026.63 578.75 1023.03 579.17 1017.05 575.92 1008.22 584.25 1003.22 584.5 1003.22 581.92 1004.05 580.67 1001.23 574.76 999.72 573.67 999.72 592.08 995.39 594.83 986.81 593.58 985.23 590.16 982.21 593.03 982.56 593.28 992.26 610.45 989.28 614.93 994.5 623.88 1009.42 620.9 1032.55 620.15 1052.69 605.22 1045.54 599.58 1040.79 601.5 1040.21 603.33 1036.63 601.58 1034.8 598.17 1036.46 597.42 1038.19 594.9 1042.96 592.83 1046.96 596.75 1045.54 599.58 1052.69 605.22 1065.71 584.24 1060.37 584.17"/>
    <polygon class="st0" points="1088.09 465.17 1069.47 454.62 1069.45 456.75 1066.54 459 1068.54 460.42 1064.54 461.92 1064.76 465.02 1060.79 461.25 1059.79 463.75 1057.87 461.83 1058.9 454.51 1051.96 454.51 1054.45 461.75 1052.54 462 1051.79 464.33 1053.87 464.83 1053.87 466.25 1049.21 471.75 1047.77 472.12 1049.46 479.08 1048.29 480.42 1052.54 484.83 1054.08 491.77 1054.87 492.92 1064.87 497.08 1070.93 497.67 1071.14 498.64 1072.27 498.73 1074.42 507.35 1087.6 508.33 1101.93 502.24 1098.2 498.51 1093.73 473.88 1095.03 472.6 1088.09 467.11 1088.09 465.17"/>
    <g>
      <polygon class="st5" points="1366.46 329.58 1370.37 330.67 1375.37 316.92 1380.62 313.67 1384.62 314.33 1386.86 308.34 1382.53 307.67 1379.95 302.67 1376.79 304.83 1372.79 303.33 1363.12 310.25 1357.96 310.58 1360.21 315.42 1349.54 316.33 1343.38 314.25 1344.13 313.58 1343.79 309.92 1340.29 310.25 1340.04 317.83 1331.21 317.66 1323.38 315 1320.63 312.58 1313.47 312.5 1299.97 305.33 1301.72 301.08 1304.14 298.92 1295.06 292.83 1293.72 293.58 1291.64 287.25 1295.14 288.08 1297.72 286.25 1293.81 282.58 1294.39 278.08 1291.14 276.75 1289.73 272.5 1278.65 277.5 1269.05 276.08 1269.81 284.17 1276.56 288.58 1272.73 290.67 1272.98 294.67 1259.15 310.17 1253.65 311.42 1252.24 309.83 1247.07 315.92 1255.73 325.67 1253.57 328.83 1243.4 328.42 1240.81 331.16 1245.18 335.07 1254.13 334.33 1245.18 338.81 1253.38 347.01 1263.08 336.57 1266.81 367.16 1283.97 408.21 1289.2 410.45 1300.39 396.27 1300.39 371.64 1335.45 347.76 1334.71 341.79 1345.06 340.99 1343.04 328.42 1339.88 326.58 1344.63 323.5 1340.13 320.67 1341.79 317.25 1348.71 319.96 1348.79 323.5 1361.62 324.83 1360.12 328.08 1355.46 331.75 1358.14 335 1360.87 331.42 1362.62 340.08 1365.46 339 1366.46 329.58"/>
      <polygon class="st2" points="1400.03 348.25 1405.55 342.43 1405.19 341.17 1400.45 342.67 1395.86 338.42 1397.11 334.58 1394.03 334.08 1393.45 329.42 1387.86 330.75 1388.2 324.58 1393.2 320.5 1393.11 312.08 1387.95 307.25 1386.86 308.34 1384.62 314.33 1380.62 313.67 1375.37 316.92 1370.37 330.67 1366.46 329.58 1365.46 339 1362.62 340.08 1360.56 345.17 1360.82 346.27 1369.77 353.73 1369.77 369.4 1375.74 370.9 1385.44 364.18 1392.15 388.81 1390.63 401.52 1392.28 400.42 1397.53 390.67 1395.53 380.58 1390.61 373.92 1394.28 368.08 1387.45 358.33 1390.03 350.92 1400.03 348.25"/>
    </g>
    <polygon class="st0" points="1534.24 241 1541.26 243.08 1539.91 240.42 1545.99 238.92 1549.4 234.66 1551.46 236.72 1556.07 232.67 1554.32 225.75 1564.73 224.67 1573.23 208.67 1554.48 211.58 1552.74 205.58 1537.99 201.67 1529.52 184.72 1517.3 182.41 1503.83 183.58 1499.75 186.83 1503.65 186.83 1495.34 198 1497.38 198.33 1488.34 202.33 1483 200.45 1477.46 209.42 1479.48 211.21 1492.7 209.78 1499.72 216.69 1483.77 217.76 1467.81 226.69 1459.48 223.96 1456.38 228.48 1460.08 231.82 1424.83 242.65 1406.38 236.46 1381.85 236.22 1377.09 228.96 1352.92 223.72 1354.7 216.81 1351.49 211.69 1338.27 205.26 1338.8 204.17 1336.13 204 1328.55 208 1328.05 213.92 1315.47 213.92 1311.3 223.83 1300.06 224.92 1303.72 234.33 1300.97 235.92 1301.06 238.83 1300.64 239.83 1278.06 248.42 1277.48 246.75 1269.65 249.75 1267.9 252.83 1268.65 256.67 1273.84 256.67 1275.56 263 1273.73 263.51 1272.81 263.76 1273.73 263.92 1272.81 263.76 1271.65 264.08 1272.48 264.83 1278.23 266.25 1280.73 270.92 1289.73 272.5 1291.14 276.75 1294.39 278.08 1293.81 282.58 1297.72 286.25 1295.14 288.08 1291.64 287.25 1293.72 293.58 1295.06 292.83 1304.14 298.92 1305.72 299.92 1308.71 297.92 1326.05 308.67 1340.29 310.25 1343.79 309.92 1344.13 313.58 1349.24 307.56 1357.96 310.58 1363.12 310.25 1372.79 303.33 1376.79 304.83 1379.95 302.67 1382.53 307.67 1386.86 308.34 1387.95 307.25 1393.11 312.08 1393.2 320.5 1388.2 324.58 1387.86 330.75 1393.45 329.42 1394.03 334.08 1397.11 334.58 1395.86 338.42 1400.45 342.67 1405.19 341.17 1405.55 342.43 1406.03 344.08 1408.86 343.75 1408.03 337.67 1410.49 337.47 1421.44 336.58 1426.19 333.08 1433.68 336 1432.52 338.33 1433.1 340.17 1439.26 342.57 1442.88 339.55 1448.11 344.03 1451.09 348.13 1450.72 343.66 1465.26 341.04 1466.01 334.33 1471.23 338.06 1482.42 335.07 1498.09 320.15 1508.54 300.75 1501.82 298.51 1508.54 294.78 1495.85 273.13 1504.06 267.16 1513.01 264.92 1502.57 260.45 1495.85 264.18 1495.11 258.96 1485.41 257.46 1506.3 244.78 1511.52 247.76 1505.55 255.22 1520.48 250 1521.1 250.31 1521.41 250 1534.24 241"/>
    <polygon class="st0" points="1362.62 340.08 1360.87 331.42 1358.14 335 1355.46 331.75 1360.12 328.08 1361.62 324.83 1348.79 323.5 1348.71 319.96 1341.79 317.25 1340.13 320.67 1344.63 323.5 1339.88 326.58 1343.04 328.42 1345.06 340.99 1354.1 340.3 1351.87 333.58 1358.58 336.57 1360.56 345.17 1362.62 340.08"/>
    <g>
      <polygon class="st2" points="1270.65 233.67 1281.73 238.33 1291.14 236.33 1287.64 239.08 1281.73 238.33 1270.65 233.67 1266.82 237.17 1256.74 236 1253.99 238.5 1255.98 239.08 1250.57 242.08 1256.74 244.42 1257.99 242.75 1265.48 245.92 1258.57 249.17 1253.23 249 1247.32 249.33 1246.32 252.42 1256.98 251.92 1258.49 253.58 1267.9 252.83 1269.65 249.75 1277.48 246.75 1278.06 248.42 1300.64 239.83 1301.06 238.83 1295.56 236 1270.65 233.67"/>
      <polygon class="st5" points="1332.71 201 1326.13 202.08 1317.57 194.18 1306.97 196.25 1302.97 193.58 1299.97 195.67 1283.06 177.83 1268.06 181.92 1255.57 177.92 1253.57 173.42 1242.47 174.29 1202.9 181.46 1210.25 184.42 1204 184.83 1205 188.33 1199.83 190 1207.67 193.5 1206.75 196 1197.42 197.58 1186.59 194.42 1178.17 197.33 1160.18 190.5 1142.68 196.92 1144.27 199.83 1137.6 197.75 1132.19 207.92 1140.35 211.25 1145.63 218.43 1155.09 214.56 1166.02 214.56 1164.35 220.5 1165.54 222.88 1154.62 224.54 1156.99 227.39 1150.81 227.63 1156.28 234.05 1161.98 235.95 1163.15 239.86 1164.68 238.33 1170.93 237.92 1177.92 243.67 1179.76 243.33 1179.67 227.33 1181.01 224.7 1192.44 222.18 1193.34 220.5 1208.25 215.3 1205.42 221.17 1208.83 224.92 1205.25 226.83 1205.1 228.91 1209.75 232.58 1224.33 231.33 1230.24 235 1233.24 244.08 1239.33 244 1242.57 246.33 1253.99 238.5 1256.74 236 1266.82 237.17 1270.65 233.67 1270.4 225.17 1266.82 222 1273.15 216.08 1289.94 216.42 1295.22 215.92 1294.06 218.17 1276.98 216.92 1271.77 219.79 1270.4 225.17 1270.65 233.67 1295.56 236 1301.06 238.83 1300.97 235.92 1303.72 234.33 1300.06 224.92 1311.3 223.83 1315.47 213.92 1328.05 213.92 1328.55 208 1336.13 204 1332.71 201"/>
    </g>
    <g>
      <polygon class="st5" points="233.77 178.86 236.5 184.33 243.71 188.81 239.73 183.33 241.97 178.86 233.77 178.86"/>
      <polygon class="st5" points="282.76 207.46 282.01 203.73 274.92 201.87 272.56 197.76 259.88 195.52 257.64 196.02 260 200 267.84 201.49 267.46 203.73 282.76 207.46"/>
      <polygon class="st5" points="576.71 201 589.64 205.97 590.63 202.99 576.71 201"/>
      <polygon class="st5" points="615 194.53 603.07 212.44 637.39 215.92 631.91 202.99 616 201 620.48 192.04 615 194.53"/>
      <polygon class="st5" points="470.77 120.4 468.28 128.36 464.8 131.84 474.74 134.33 483.7 129.35 495.14 133.33 499.11 131.34 470.77 120.4"/>
      <polygon class="st5" points="286.74 95.02 311.6 86.07 306.13 91.54 318.07 92.04 308.12 95.52 341.45 97.01 314.09 100 335.98 107.46 366.32 102.49 387.7 105.97 395.16 99.5 377.76 94.53 377.26 81.09 359.85 83.08 362.34 93.04 352.89 83.58 344.43 87.06 311.11 77.61 304.14 80.6 276.79 76.62 279.77 82.09 271.82 90.55 286.74 95.02"/>
      <polygon class="st5" points="322.05 61.19 284.25 68.66 309.12 72.14 322.05 61.19"/>
      <polygon class="st5" points="328.51 65.67 312.6 73.63 335.48 77.61 372.78 72.14 355.37 65.67 345.43 71.14 328.51 65.67"/>
      <polygon class="st5" points="348.91 56.72 328.02 61.19 346.42 64.18 348.91 56.72"/>
      <polygon class="st5" points="412.57 79.6 394.67 80.6 385.71 86.07 406.6 93.04 417.55 90.05 412.57 79.6"/>
      <polygon class="st5" points="421.53 105.97 411.08 100.5 404.61 104.48 421.53 105.97"/>
      <polygon class="st5" points="619.98 180.97 611.77 179.1 598.71 182.46 612.89 175.37 597.6 174.25 598.71 170.15 587.15 165.67 593.49 163.81 575.96 147.01 569.24 156.72 567.38 154.85 557.31 159.7 557.31 155.22 552.83 155.6 551.34 144.4 542.76 143.66 540.9 140.3 531.94 136.19 522.62 138.43 508.81 136.57 513.29 151.12 505.83 155.6 516.27 160.45 517.77 168.28 510.31 174.63 500.61 176.12 508.07 188.43 497.62 193.28 489.79 185.45 489.04 173.88 474.12 172.39 462.56 169.4 445.4 163.43 435.33 165.3 438.31 161.94 433.83 155.6 424.88 155.22 427.49 152.98 426.75 146.64 435.7 136.94 446.89 134.7 441.3 131.72 457.71 129.48 464.8 122.76 468.9 119.4 480.84 119.03 493.15 113.81 488.67 107.84 494.64 103.36 473 100.37 463.3 114.18 459.95 105.97 453.23 103.73 449.88 108.58 430.85 91.04 423.02 91.04 416.67 93.66 418.91 99.63 431.97 102.24 433.09 107.09 423.02 108.96 423.39 114.92 418.54 115.67 418.17 108.58 405.86 107.09 407.35 110.82 374.15 109.7 370.05 105.22 358.48 107.46 363.7 117.16 348.41 110.07 324.17 111.57 328.64 107.84 285.74 100.37 280.89 104.1 276.04 98.88 271.19 103.73 260.75 97.01 253.29 101.12 251.42 97.76 221.95 102.61 219.36 105.58 194.95 101.09 194.95 101.44 194.95 148.17 205.45 147.9 212.36 155.09 223.15 150.38 240.01 166.15 250.24 169.46 249.68 174.44 247.35 175.82 248.1 176.67 250.51 183 263.48 188.43 259.14 193.81 275.59 197.41 285.3 203.58 285.53 204.97 424.38 204.97 424.38 202.61 418.38 196.92 415.22 197.83 415.88 192 413.47 192.75 412.8 189.83 410.97 190.67 405.39 185.42 405.89 184.58 403.8 183.33 401.89 183.58 400.06 191.33 399.14 186 396.22 186.25 399.31 178.75 383.48 168.58 386.48 164.58 385.23 163.67 366.56 153.5 353.07 154.58 344.65 157.5 344.99 156.17 353.15 152 348.74 138.08 324.74 145.58 314.5 144.75 319.74 143.17 322.16 141.58 326.83 140.67 324.28 137.42 301.5 121 296.5 125.08 284.25 124.67 290.75 120.42 277.59 118.75 300.17 114.83 300.92 118.42 309.83 117 309.91 121.33 301.5 121 324.28 137.42 335.91 139.83 344.57 135.75 351.57 135.54 348.74 138.08 353.15 152 366.56 153.5 385.23 163.67 389.73 159.42 391.56 161.58 389.06 163.25 390.56 163.58 383.48 168.58 399.31 178.75 401.89 183.58 403.8 183.33 404.89 181.17 411.22 179.58 410.72 181.92 418.55 194 418.38 196.92 424.38 202.61 426.62 206.22 451.45 210.11 451.96 209.92 454.12 207.58 456.04 208.17 458.74 205.5 467.87 206.33 470.7 210.17 475.62 210.25 474.7 211.92 476.95 213.5 475.95 215 479.62 218.33 496.03 220.33 501.53 226.25 497.87 228.11 491.95 224 493.53 226.92 491.2 229.5 491.11 233.33 487.78 234.92 487.74 234.78 486.75 237.33 487.95 239.42 492.61 237 499.69 236 504.94 234.76 504.33 233.6 502.58 233.77 501.11 233.67 502.53 231.75 511.19 229.83 514.69 230.33 520.77 227.5 520.66 227.79 522.66 226.17 525.6 224.81 542.25 224.81 542.99 223.6 544.95 223.18 545.65 223.79 546.02 222.43 547.98 221.27 547.7 220.75 548.49 220.1 548.35 218.94 549.57 217.96 549.75 216.42 553.53 212.59 554.65 212.78 554.6 213.62 555.49 214.13 558.24 213.06 560.85 214.69 560.9 221.41 562.76 221.92 562.35 222.57 562.67 223.6 563.93 224.16 564.02 224.32 576.19 222.11 580.81 223.13 575.96 223.88 569.24 227.61 569.62 231.72 573.35 232.09 579.32 227.61 595.36 223.88 593.12 221.64 600.95 220.52 597.97 217.91 597.6 213.81 591.25 220.89 580.06 219.78 574.47 211.57 567.38 209.33 573.72 209.33 579.32 205.22 571.86 202.61 554.7 208.58 547.98 214.92 543.88 215.67 557.68 203.36 562.53 203.36 566.26 198.51 600.58 199.25 606.92 192.91 615.5 192.91 622.22 189.18 619.98 180.97"/>
      <polygon class="st5" points="486.18 138.81 490.66 135.32 480.71 138.31 486.18 138.81"/>
      <polygon class="st5" points="503.09 136.82 498.12 141.29 501.6 141.29 503.09 136.82"/>
      <polygon class="st5" points="581.68 126.37 593.12 115.92 556.31 104.48 565.76 102.99 539.9 91.04 532.94 95.02 516.03 82.59 479.72 80.1 471.76 90.05 474.74 81.09 459.82 80.6 449.38 89.55 455.84 98.01 503.09 101.99 505.08 97.01 534.43 108.96 538.41 114.43 527.47 119.4 531.44 122.39 512.54 122.39 508.57 127.86 531.44 126.37 546.86 137.81 570.24 141.29 557.31 131.84 576.71 136.82 572.23 126.87 557.31 120.4 563.28 116.91 581.68 126.37"/>
      <polygon class="st5" points="422.02 80.1 425.51 89.05 430.85 91.04 448.38 79.6 422.02 80.1"/>
      <polygon class="st5" points="426.5 71.14 417.05 75.12 433.46 76.62 426.5 71.14"/>
      <polygon class="st5" points="410.58 65.67 378.25 67.66 392.68 74.13 412.08 73.63 410.58 65.67"/>
      <polygon class="st5" points="405.11 61.19 399.14 55.72 371.79 53.23 389.2 61.69 405.11 61.19"/>
      <polygon class="st5" points="504.09 166.67 498.62 170.15 504.09 170.65 504.09 166.67"/>
      <polygon class="st5" points="579.94 214.68 578.2 215.67 580.93 218.66 586.9 219.15 590.38 216.17 581.18 217.16 579.94 214.68"/>
      <polygon class="st5" points="494.89 183.33 490.66 185.32 497.13 186.32 494.89 183.33"/>
      <polygon class="st5" points="516.27 108.46 515.03 114.43 524.98 113.68 524.73 108.71 516.27 108.46"/>
      <polygon class="st5" points="489.66 46.77 503.09 43.53 507.82 46.77 486.93 48.26 493.39 51.99 480.21 48.51 467.78 48.26 487.67 56.96 477.23 55.22 461.31 57.96 467.76 59.91 476.98 62.69 471.51 63.18 465.29 60.45 458.08 60.95 464.8 62.93 433.21 67.66 440.18 76.87 501.85 76.87 502.84 73.13 490.91 70.15 453.36 72.39 452.11 67.66 495.14 67.16 495.63 69.15 509.31 67.91 509.31 65.17 491.16 62.44 511.3 61.69 526.97 56.47 529.46 52.49 543.38 51.24 594.86 38.56 568.75 34.83 516.03 34.08 486.93 36.82 492.65 39.05 471.51 37.06 464.55 39.8 442.41 41.04 464.55 47.51 489.66 46.77"/>
      <polygon class="st5" points="444.9 52.98 429.23 55.22 442.91 60.2 474.99 53.48 436.94 42.54 416.05 49.75 427.74 53.73 444.9 52.98"/>
      <polygon class="st5" points="433.83 61.57 410.71 55.22 408.1 57.84 418.54 63.81 433.83 61.57"/>
      <polygon class="st5" points="431.22 65.67 415.93 66.79 432.34 69.4 431.22 65.67"/>
      <polygon class="st5" points="505.36 235.56 505.13 235.12 504.77 235.83 505.36 235.56"/>
    </g>
  </g>
</svg>